SplineFontDB: 3.2
FontName: ADM-3A
FullName: ADM-3A Regular
FamilyName: ADM-3A
Weight: Regular
Copyright: Copyright (c) 2022, Peter Jakubco
UComments: "2022-9-17: Created with FontForge (http://fontforge.org)"
Version: 1.0
ItalicAngle: 0
UnderlinePosition: 313
UnderlineWidth: 208
Ascent: 1792
Descent: 0
InvalidEm: 0
LayerCount: 2
Layer: 0 1 "Back" 1
Layer: 1 1 "Fore" 0
XUID: [1021 261 208283644 15436461]
StyleMap: 0x0040
FSType: 0
OS2Version: 0
OS2_WeightWidthSlopeOnly: 0
OS2_UseTypoMetrics: 1
CreationTime: 1663397476
ModificationTime: 1666303265
PfmFamily: 49
TTFWeight: 400
TTFWidth: 5
LineGap: 377
VLineGap: 0
OS2TypoAscent: 0
OS2TypoAOffset: 1
OS2TypoDescent: 0
OS2TypoDOffset: 1
OS2TypoLinegap: 377
OS2WinAscent: 0
OS2WinAOffset: 1
OS2WinDescent: 0
OS2WinDOffset: 1
HheadAscent: 0
HheadAOffset: 1
HheadDescent: 0
HheadDOffset: 1
OS2Vendor: 'PfEd'
MarkAttachClasses: 1
DEI: 91125

StartChar: SOH
Encoding: 1 1 0
Width: 1536
VWidth: 2048
Flags: MW
LayerCount: 2
Back
Fore
SplineSet
512 1280 m 25,0,-1
 1024 1280 l 25,1,2
 1024 1408 1024 1408 1024 1461 c 0,3,4
 1024 1536 1024 1536 949 1536 c 24,5,-1
 587 1536 l 0,6,7
 512 1536 512 1536 512 1461 c 24,8,9
 512 1461 512 1461 512 1280 c 25,0,-1
949 1792 m 0,10,11
 1280 1792 1280 1792 1280 1461 c 24,12,13
 1280 1461 1280 1461 1280 512 c 25,14,-1
 1024 512 l 24,15,-1
 1024 1024 l 25,16,-1
 512 1024 l 25,17,-1
 512 512 l 25,18,-1
 256 512 l 25,19,20
 256 1152 256 1152 256 1461 c 0,21,22
 256 1792 256 1792 587 1792 c 24,23,24
 587 1792 587 1792 949 1792 c 0,10,11
0 256 m 25,25,-1
 1280 256 l 25,26,-1
 1280 0 l 25,27,-1
 0 0 l 25,28,-1
 0 256 l 25,25,-1
EndSplineSet
Validated: 1
EndChar

StartChar: STX
Encoding: 2 2 1
Width: 1536
VWidth: 2048
Flags: MW
LayerCount: 2
Back
Fore
SplineSet
437 1792 m 9,0,-1
 1280 949 l 25,1,-1
 1280 843 l 25,2,-1
 437 0 l 24,3,-1
 256 0 l 25,4,-1
 256 1792 l 25,5,6
 256 1792 256 1792 437 1792 c 9,0,-1
EndSplineSet
Validated: 1
EndChar

StartChar: ETX
Encoding: 3 3 2
Width: 1536
VWidth: 2048
Flags: MW
LayerCount: 2
Back
Fore
SplineSet
1024 1792 m 25,0,-1
 1024 0 l 24,1,-1
 843 0 l 24,2,-1
 0 843 l 25,3,-1
 0 949 l 25,4,-1
 843 1792 l 24,5,6
 843 1792 843 1792 1024 1792 c 25,0,-1
EndSplineSet
Validated: 1
EndChar

StartChar: EOT
Encoding: 4 4 3
Width: 1536
VWidth: 2048
Flags: MW
LayerCount: 2
Back
Fore
SplineSet
512 1536 m 24,0,-1
 512 768 l 24,1,-1
 949 768 l 0,2,3
 1024 768 1024 768 1024 843 c 24,4,5
 1024 1190 1024 1190 1024 1461 c 0,6,7
 1024 1536 1024 1536 949 1536 c 24,8,9
 949 1536 949 1536 512 1536 c 24,0,-1
949 1792 m 0,10,11
 1280 1792 1280 1792 1280 1461 c 24,12,13
 1280 986 1280 986 1280 843 c 0,14,15
 1280 512 1280 512 949 512 c 24,16,-1
 256 512 l 25,17,-1
 256 1792 l 25,18,19
 256 1792 256 1792 949 1792 c 0,10,11
0 256 m 25,20,-1
 1280 256 l 25,21,-1
 1280 0 l 25,22,-1
 0 0 l 25,23,-1
 0 256 l 25,20,-1
EndSplineSet
Validated: 1
EndChar

StartChar: ENQ
Encoding: 5 5 4
Width: 1536
VWidth: 2048
Flags: MW
LayerCount: 2
Back
Fore
SplineSet
0 256 m 29,0,-1
 1280 256 l 25,1,-1
 1280 0 l 25,2,-1
 0 0 l 25,3,-1
 0 256 l 29,0,-1
256 512 m 25,4,-1
 256 1792 l 25,5,-1
 1280 1792 l 25,6,-1
 1280 1536 l 25,7,-1
 512 1536 l 25,8,-1
 512 1280 l 25,9,-1
 1024 1280 l 25,10,-1
 1024 1024 l 25,11,-1
 512 1024 l 25,12,-1
 512 768 l 25,13,-1
 1280 768 l 25,14,-1
 1280 512 l 25,15,-1
 256 512 l 25,4,-1
EndSplineSet
Validated: 1
EndChar

StartChar: ACK
Encoding: 6 6 5
Width: 1536
VWidth: 2048
Flags: MW
LayerCount: 2
Back
Fore
SplineSet
0 256 m 29,0,-1
 1280 256 l 25,1,-1
 1280 0 l 25,2,-1
 0 0 l 25,3,-1
 0 256 l 29,0,-1
256 512 m 25,4,-1
 256 1792 l 25,5,-1
 1280 1792 l 25,6,-1
 1280 1536 l 25,7,-1
 512 1536 l 25,8,-1
 512 1280 l 25,9,-1
 1024 1280 l 25,10,-1
 1024 1024 l 25,11,-1
 512 1024 l 25,12,-1
 512 512 l 25,13,-1
 256 512 l 25,4,-1
EndSplineSet
Validated: 1
EndChar

StartChar: BEEP
Encoding: 7 7 6
Width: 1536
VWidth: 2048
Flags: MW
LayerCount: 2
Back
Fore
SplineSet
768 1461 m 0,0,1
 768 1536 768 1536 693 1536 c 24,2,3
 640 1536 640 1536 587 1536 c 0,4,5
 512 1536 512 1536 512 1461 c 24,6,7
 512 1114 512 1114 512 843 c 0,8,9
 512 768 512 768 587 768 c 24,10,11
 587 768 587 768 693 768 c 0,12,13
 767 768 767 768 768 843 c 24,14,15
 768 843 768 843 768 1461 c 0,0,1
693 1792 m 0,16,17
 1024 1792 1024 1792 1024 1461 c 24,18,-1
 1024 1099 l 0,19,20
 1024 1024 1024 1024 1099 1024 c 24,21,-1
 1223 1024 l 0,22,23
 1280 960 1280 960 1280 896 c 128,-1,24
 1280 832 1280 832 1223 768 c 8,25,-1
 843 768 l 0,26,27
 768 768 768 768 768 693 c 24,28,-1
 768 569 l 0,29,30
 704 512 704 512 639 512 c 0,31,32
 596 512 596 512 512 569 c 1,33,-1
 512 693 l 0,34,35
 512 768 512 768 437 768 c 24,36,-1
 57 768 l 0,37,38
 0 832 0 832 0 896 c 128,-1,39
 0 960 0 960 57 1024 c 8,40,-1
 181 1024 l 0,41,42
 256 1024 256 1024 256 1099 c 24,43,-1
 256 1461 l 0,44,45
 256 1792 256 1792 587 1792 c 24,46,47
 587 1792 587 1792 693 1792 c 0,16,17
0 256 m 25,48,-1
 1280 256 l 25,49,-1
 1280 0 l 25,50,-1
 0 0 l 25,51,-1
 0 256 l 25,48,-1
EndSplineSet
Validated: 1
EndChar

StartChar: BS
Encoding: 8 8 7
Width: 1536
VWidth: 2048
Flags: MW
LayerCount: 2
Back
Fore
SplineSet
0 949 m 25,0,-1
 587 1536 l 24,1,-1
 768 1536 l 24,2,-1
 768 1355 l 25,3,-1
 437 1024 l 24,4,-1
 1280 1024 l 25,5,-1
 1280 768 l 24,6,-1
 437 768 l 24,7,-1
 768 437 l 24,8,-1
 768 256 l 25,9,-1
 587 256 l 24,10,-1
 0 843 l 25,11,-1
 0 949 l 25,0,-1
EndSplineSet
Validated: 1
EndChar

StartChar: HT
Encoding: 9 9 8
Width: 1536
VWidth: 2048
Flags: MW
LayerCount: 2
Back
Fore
SplineSet
0 256 m 25,0,-1
 1280 256 l 25,1,-1
 1280 0 l 25,2,-1
 0 0 l 25,3,-1
 0 256 l 25,0,-1
512 1280 m 25,4,-1
 768 1280 l 25,5,-1
 768 1024 l 25,6,-1
 512 1024 l 25,7,-1
 512 1280 l 25,4,-1
EndSplineSet
Validated: 1
EndChar

StartChar: LF
Encoding: 10 10 9
Width: 1536
VWidth: 2048
Flags: MW
LayerCount: 2
Back
Fore
SplineSet
768 1792 m 25,0,-1
 768 693 l 24,1,-1
 1099 1024 l 24,2,-1
 1280 1024 l 25,3,-1
 1280 843 l 25,4,-1
 693 256 l 25,5,-1
 587 256 l 24,6,-1
 0 843 l 25,7,-1
 0 1024 l 25,8,-1
 181 1024 l 24,9,-1
 512 693 l 24,10,-1
 512 1792 l 25,11,-1
 768 1792 l 25,0,-1
EndSplineSet
Validated: 1
EndChar

StartChar: VT
Encoding: 11 11 10
Width: 1536
VWidth: 2048
Flags: MW
LayerCount: 2
Back
Fore
SplineSet
693 1536 m 25,0,-1
 1280 949 l 25,1,-1
 1280 768 l 24,2,-1
 1099 768 l 24,3,-1
 768 1099 l 25,4,-1
 768 0 l 25,5,-1
 512 0 l 25,6,-1
 512 1099 l 25,7,-1
 181 768 l 24,8,-1
 0 768 l 24,9,-1
 0 949 l 25,10,-1
 587 1536 l 24,11,12
 587 1536 587 1536 693 1536 c 25,0,-1
EndSplineSet
Validated: 1
EndChar

StartChar: FF
Encoding: 12 12 11
Width: 1536
VWidth: 2048
Flags: MW
LayerCount: 2
Back
Fore
SplineSet
693 1536 m 25,0,-1
 1280 949 l 25,1,-1
 1280 843 l 25,2,-1
 693 256 l 25,3,-1
 512 256 l 25,4,-1
 512 437 l 24,5,-1
 843 768 l 24,6,-1
 0 768 l 24,7,-1
 0 1024 l 25,8,-1
 843 1024 l 24,9,-1
 512 1355 l 25,10,-1
 512 1536 l 17,11,12
 512 1536 512 1536 693 1536 c 25,0,-1
EndSplineSet
Validated: 1
EndChar

StartChar: CR
Encoding: 13 13 12
Width: 1536
VWidth: 2048
Flags: MW
LayerCount: 2
Back
Fore
SplineSet
843 1536 m 9,0,-1
 256 949 l 25,1,-1
 256 843 l 25,2,-1
 843 256 l 24,3,-1
 1024 256 l 25,4,-1
 1024 437 l 24,5,-1
 587 843 l 25,6,-1
 587 949 l 25,7,-1
 1024 1355 l 25,8,-1
 1024 1536 l 17,9,10
 1024 1536 1024 1536 843 1536 c 9,0,-1
0 1792 m 25,11,-1
 1280 1792 l 25,12,-1
 1280 0 l 25,13,-1
 0 0 l 25,14,-1
 0 1792 l 25,11,-1
EndSplineSet
Validated: 1
EndChar

StartChar: SO
Encoding: 14 14 13
Width: 1536
VWidth: 2048
Flags: MW
LayerCount: 2
Back
Fore
SplineSet
639 715 m 1,0,1
 639 715 639 715 181 256 c 1,2,3
 181 256 181 256 0 256 c 25,4,5
 0 256 0 256 0 437 c 9,6,7
 0 437 0 437 587 1024 c 24,8,9
 587 1024 587 1024 693 1024 c 25,10,11
 693 1024 693 1024 1280 437 c 1,12,13
 1280 437 1280 437 1280 256 c 25,14,15
 1280 256 1280 256 1099 256 c 1,16,-1
 639 715 l 1,0,1
639 1483 m 1,17,18
 639 1483 639 1483 181 1024 c 1,19,20
 181 1024 181 1024 0 1024 c 25,21,22
 0 1024 0 1024 0 1205 c 9,23,24
 0 1205 0 1205 587 1792 c 24,25,26
 587 1792 587 1792 693 1792 c 25,27,28
 693 1792 693 1792 1280 1205 c 1,29,30
 1280 1205 1280 1205 1280 1024 c 25,31,32
 1280 1024 1280 1024 1099 1024 c 1,33,-1
 639 1483 l 1,17,18
EndSplineSet
Validated: 1
EndChar

StartChar: SI
Encoding: 15 15 14
Width: 1536
VWidth: 2048
Flags: MW
LayerCount: 2
Back
Fore
SplineSet
639 1333 m 129,-1,1
 639 1333 639 1333 1099 1792 c 1,2,-1
 1280 1792 l 25,3,4
 1280 1611 1280 1611 1280 1611 c 1,5,6
 693 1024 693 1024 693 1024 c 25,7,8
 587 1024 587 1024 587 1024 c 24,9,10
 0 1611 0 1611 0 1611 c 17,11,12
 0 1792 0 1792 0 1792 c 25,13,14
 181 1792 181 1792 181 1792 c 1,15,0
 639 1333 639 1333 639 1333 c 129,-1,1
639 565 m 129,-1,17
 639 565 639 565 1099 1024 c 1,18,-1
 1280 1024 l 25,19,20
 1280 843 1280 843 1280 843 c 1,21,22
 693 256 693 256 693 256 c 25,23,24
 587 256 587 256 587 256 c 24,25,26
 0 843 0 843 0 843 c 17,27,28
 0 1024 0 1024 0 1024 c 25,29,30
 181 1024 181 1024 181 1024 c 1,31,16
 639 565 639 565 639 565 c 129,-1,17
EndSplineSet
Validated: 1
EndChar

StartChar: DLE
Encoding: 16 16 15
Width: 1536
VWidth: 2048
Flags: MW
LayerCount: 2
Back
Fore
SplineSet
437 768 m 1,0,1
 437 768 437 768 949 768 c 0,2,3
 1024 768 1024 768 1024 843 c 0,4,5
 1024 843 1024 843 1024 1355 c 0,6,7
 1024 1355 1024 1355 437 768 c 1,0,1
256 949 m 129,-1,9
 256 949 256 949 843 1536 c 1,10,11
 843 1536 843 1536 330 1536 c 0,12,13
 256 1536 256 1536 256 1461 c 0,14,8
 256 949 256 949 256 949 c 129,-1,9
0 256 m 25,15,-1
 1280 255 l 25,16,-1
 1280 0 l 25,17,-1
 0 0 l 25,18,-1
 0 256 l 25,15,-1
949 1792 m 0,19,20
 1280 1792 1280 1792 1280 1461 c 24,21,22
 1280 1461 1280 1461 1280 843 c 0,23,24
 1280 512 1280 512 949 512 c 24,25,-1
 331 512 l 0,26,27
 0 512 0 512 0 843 c 24,28,29
 0 843 0 843 0 1461 c 0,30,31
 0 1792 0 1792 331 1792 c 24,32,33
 331 1792 331 1792 949 1792 c 0,19,20
EndSplineSet
Validated: 1
EndChar

StartChar: DC1
Encoding: 17 17 16
Width: 1536
VWidth: 2048
Flags: MW
LayerCount: 2
Back
Fore
SplineSet
768 1792 m 1,0,-1
 768 843 l 0,1,2
 768 768 768 768 843 768 c 0,3,-1
 967 768 l 0,4,5
 1024 768 1024 768 1024 640 c 128,-1,6
 1024 512 1024 512 967 512 c 0,7,8
 640 512 640 512 313 512 c 0,9,10
 256 512 256 512 256 640 c 128,-1,11
 256 768 256 768 313 768 c 0,12,-1
 437 768 l 0,13,14
 512 768 512 768 512 843 c 0,15,16
 512 843 512 843 512 1355 c 1,17,18
 512 1355 512 1355 437 1280 c 0,19,20
 437 1280 437 1280 256 1280 c 1,21,22
 256 1280 256 1280 256 1465 c 0,23,24
 256 1465 256 1465 587 1792 c 0,25,26
 587 1792 587 1792 768 1792 c 1,0,-1
0 256 m 25,27,-1
 1280 256 l 25,28,-1
 1280 0 l 25,29,-1
 0 0 l 25,30,-1
 0 256 l 25,27,-1
EndSplineSet
Validated: 1
EndChar

StartChar: DC2
Encoding: 18 18 17
Width: 1536
VWidth: 2048
Flags: MW
LayerCount: 2
Back
Fore
SplineSet
0 256 m 1,0,1
 0 256 0 256 1280 256 c 1,2,3
 1280 256 1280 256 1280 0 c 1,4,5
 1280 0 1280 0 0 0 c 1,6,7
 0 0 0 0 0 256 c 1,0,1
711 1792 m 0,8,9
 1024 1792 1024 1792 1024 1461 c 0,10,11
 1024 1461 1024 1461 1024 1355 c 1,12,-1
 512 843 l 0,13,14
 512 768 512 768 587 768 c 0,15,-1
 949 768 l 0,16,17
 1024 768 1024 768 1024 640 c 0,18,19
 1024 513 1024 513 949 512 c 0,20,21
 949 512 949 512 256 512 c 0,22,23
 256 512 256 512 258 948 c 0,24,-1
 769 1460 l 0,25,26
 768 1536 768 1536 711 1536 c 0,27,-1
 256 1536 l 0,28,29
 256 1536 256 1536 256 1792 c 0,30,31
 256 1792 256 1792 711 1792 c 0,8,9
EndSplineSet
Validated: 1
EndChar

StartChar: DC3
Encoding: 19 19 18
Width: 1536
VWidth: 2048
Flags: MW
LayerCount: 2
Back
Fore
SplineSet
0 256 m 1,0,1
 0 256 0 256 1280 256 c 0,2,3
 1280 256 1280 256 1280 0 c 0,4,5
 1280 0 1280 0 0 0 c 0,6,7
 0 0 0 0 0 256 c 1,0,1
711 1792 m 256,8,9
 1024 1792 1024 1792 1024 1465 c 0,10,11
 1024 1465 1024 1465 1024 843 c 0,12,13
 1024 512 1024 512 693 512 c 1,14,15
 693 512 693 512 256 512 c 0,16,17
 256 512 256 512 256 768 c 0,18,-1
 693 768 l 0,19,20
 768 768 768 768 768 843 c 1,21,-1
 768 949 l 0,22,23
 768 1024 768 1024 693 1024 c 24,24,-1
 256 1024 l 0,25,26
 256 1024 256 1024 256 1280 c 0,27,-1
 693 1280 l 0,28,29
 768 1280 768 1280 768 1355 c 24,30,31
 768 1410 768 1410 768 1465 c 0,32,33
 768 1536 768 1536 693 1536 c 0,34,-1
 256 1536 l 0,35,36
 256 1536 256 1536 256 1792 c 257,37,38
 256 1792 256 1792 711 1792 c 256,8,9
EndSplineSet
Validated: 1
EndChar

StartChar: DC4
Encoding: 20 20 19
Width: 1536
VWidth: 2048
Flags: MW
LayerCount: 2
Back
Fore
SplineSet
0 256 m 25,0,-1
 1280 256 l 25,1,-1
 1280 0 l 25,2,-1
 0 0 l 25,3,-1
 0 256 l 25,0,-1
768 1355 m 0,4,-1
 437 1024 l 0,5,-1
 768 1024 l 0,6,7
 768 1024 768 1024 768 1355 c 0,4,-1
1024 1792 m 0,8,-1
 1024 1024 l 0,9,-1
 1223 1024 l 1,10,11
 1280 1024 1280 1024 1280 896 c 128,-1,12
 1280 768 1280 768 1223 768 c 1,13,-1
 1024 768 l 0,14,-1
 1024 512 l 0,15,16
 1024 512 1024 512 768 512 c 0,17,-1
 768 768 l 0,18,-1
 256 768 l 0,19,20
 256 768 256 768 256 1205 c 0,21,22
 256 1205 256 1205 843 1792 c 0,23,24
 843 1792 843 1792 1024 1792 c 0,8,-1
EndSplineSet
Validated: 1
EndChar

StartChar: NAK
Encoding: 21 21 20
Width: 1536
VWidth: 2048
Flags: MW
LayerCount: 2
Back
Fore
SplineSet
0 256 m 25,0,-1
 1280 256 l 25,1,-1
 1280 0 l 25,2,-1
 0 0 l 25,3,-1
 0 256 l 25,0,-1
1280 1792 m 25,4,5
 1280 1792 1280 1792 1280 843 c 0,6,7
 1280 512 1280 512 949 512 c 16,8,9
 949 512 949 512 587 512 c 0,10,11
 256 512 256 512 256 843 c 24,12,13
 256 843 256 843 256 1792 c 25,14,-1
 512 1792 l 25,15,-1
 512 843 l 0,16,17
 512 768 512 768 587 768 c 24,18,-1
 949 768 l 2,19,20
 1024 768 1024 768 1024 843 c 10,21,-1
 1024 1792 l 24,22,23
 1024 1792 1024 1792 1280 1792 c 25,4,5
EndSplineSet
Validated: 1
EndChar

StartChar: SYN
Encoding: 22 22 21
Width: 1536
VWidth: 2048
Flags: MW
LayerCount: 2
Back
Fore
SplineSet
0 256 m 25,0,-1
 1280 256 l 25,1,-1
 1280 0 l 25,2,-1
 0 0 l 25,3,-1
 0 256 l 25,0,-1
640 852 m 1,4,5
 640 852 640 852 1024 1461 c 1,6,7
 1024 1461 1024 1461 1024 1792 c 0,8,9
 1024 1792 1024 1792 1280 1792 c 1,10,-1
 1280 1355 l 1,11,-1
 693 512 l 1,12,13
 693 512 693 512 587 512 c 0,14,15
 587 512 587 512 0 1355 c 1,16,-1
 0 1792 l 1,17,18
 0 1792 0 1792 256 1792 c 0,19,20
 256 1628 256 1628 256 1465 c 1,21,22
 256 1465 256 1465 640 852 c 1,4,5
EndSplineSet
Validated: 1
EndChar

StartChar: ETB
Encoding: 23 23 22
Width: 1536
VWidth: 2048
Flags: MW
LayerCount: 2
Back
Fore
SplineSet
0 256 m 1,0,-1
 1280 256 l 1,1,-1
 1280 0 l 1,2,-1
 0 0 l 1,3,4
 0 0 0 0 0 256 c 1,0,-1
639 625 m 1,5,6
 639 512 639 512 437 512 c 0,7,8
 437 512 437 512 331 512 c 0,9,10
 0 512 0 512 0 843 c 0,11,12
 0 843 0 843 0 1792 c 1,13,14
 0 1792 0 1792 256 1792 c 1,15,-1
 256 843 l 1,16,17
 256 768 256 768 331 768 c 0,18,19
 437 768 437 768 437 768 c 0,20,21
 512 768 512 768 512 843 c 0,22,23
 512 1223 512 1223 512 1223 c 0,24,25
 512 1280 512 1280 639 1280 c 0,26,27
 768 1280 768 1280 768 1223 c 0,28,29
 768 843 768 843 768 843 c 1,30,31
 768 768 768 768 843 768 c 0,32,33
 949 768 949 768 949 768 c 0,34,35
 1024 768 1024 768 1024 843 c 0,36,37
 1024 1792 1024 1792 1024 1792 c 129,-1,38
 1024 1792 1024 1792 1280 1792 c 1,39,40
 1280 1792 1280 1792 1280 843 c 0,41,42
 1280 512 1280 512 949 512 c 0,43,44
 949 512 949 512 843 512 c 0,45,46
 639 512 639 512 639 625 c 1,5,6
EndSplineSet
Validated: 1
EndChar

StartChar: CAN
Encoding: 24 24 23
Width: 1536
VWidth: 2048
Flags: MW
LayerCount: 2
Back
Fore
SplineSet
0 256 m 1,0,-1
 1280 256 l 1,1,-1
 1280 0 l 1,2,-1
 0 0 l 1,3,-1
 0 256 l 1,0,-1
639 1330 m 1,4,5
 639 1330 639 1330 1100 1792 c 0,6,7
 1100 1792 1100 1792 1280 1792 c 1,8,9
 1280 1792 1280 1792 1280 1611 c 1,10,11
 1280 1611 1280 1611 834 1147 c 1,12,13
 834 1147 834 1147 1280 693 c 0,14,-1
 1280 512 l 1,15,-1
 1099 512 l 0,16,-1
 639 951 l 1,17,18
 639 951 639 951 181 512 c 0,19,20
 181 512 181 512 0 512 c 1,21,22
 0 512 0 512 0 693 c 0,23,24
 0 693 0 693 459 1152 c 1,25,26
 459 1152 459 1152 0 1611 c 1,27,-1
 0 1792 l 1,28,29
 0 1792 0 1792 181 1792 c 0,30,31
 181 1792 181 1792 639 1330 c 1,4,5
EndSplineSet
Validated: 1
EndChar

StartChar: EM
Encoding: 25 25 24
Width: 1536
VWidth: 2048
Flags: MW
LayerCount: 2
Back
Fore
SplineSet
0 256 m 25,0,-1
 1280 256 l 25,1,-1
 1280 0 l 25,2,-1
 0 0 l 25,3,-1
 0 256 l 25,0,-1
640 1333 m 1,4,5
 1099 1792 1099 1792 1099 1792 c 0,6,7
 1280 1792 1280 1792 1280 1792 c 129,-1,8
 1280 1792 1280 1792 1280 1611 c 1,9,-1
 768 1099 l 1,10,-1
 768 512 l 1,11,-1
 512 512 l 1,12,-1
 512 1099 l 1,13,-1
 0 1611 l 1,14,-1
 0 1792 l 1,15,16
 181 1792 181 1792 181 1792 c 0,17,18
 640 1333 640 1333 640 1333 c 1,4,5
EndSplineSet
Validated: 1
EndChar

StartChar: SUB
Encoding: 26 26 25
Width: 1536
VWidth: 2048
Flags: MW
LayerCount: 2
Back
Fore
SplineSet
0 256 m 25,0,-1
 1280 256 l 25,1,-1
 1280 0 l 25,2,-1
 0 0 l 25,3,-1
 0 256 l 25,0,-1
0 1792 m 24,4,-1
 1280 1792 l 25,5,-1
 1280 1611 l 25,6,-1
 437 768 l 24,7,-1
 1280 768 l 24,8,-1
 1280 512 l 25,9,-1
 0 512 l 25,10,-1
 0 693 l 24,11,-1
 843 1536 l 24,12,-1
 0 1536 l 24,13,14
 0 1536 0 1536 0 1792 c 24,4,-1
EndSplineSet
Validated: 1
EndChar

StartChar: ESC
Encoding: 27 27 26
Width: 1536
VWidth: 2048
Flags: MW
LayerCount: 2
Back
Fore
SplineSet
1024 1536 m 24,0,-1
 256 1536 l 24,1,-1
 256 256 l 25,2,-1
 1024 256 l 24,3,-1
 1024 512 l 25,4,-1
 512 512 l 25,5,-1
 512 768 l 24,6,-1
 768 768 l 24,7,-1
 768 1024 l 25,8,-1
 512 1024 l 25,9,-1
 512 1280 l 25,10,-1
 1024 1280 l 24,11,12
 1024 1280 1024 1280 1024 1536 c 24,0,-1
0 1792 m 25,13,-1
 1280 1792 l 25,14,-1
 1280 0 l 25,15,-1
 0 0 l 25,16,-1
 0 1792 l 25,13,-1
EndSplineSet
Validated: 1
EndChar

StartChar: FS
Encoding: 28 28 27
Width: 1536
VWidth: 2048
Flags: MW
LayerCount: 2
Back
Fore
SplineSet
0 256 m 25,0,-1
 1280 256 l 25,1,-1
 1280 0 l 25,2,-1
 0 0 l 25,3,-1
 0 256 l 25,0,-1
181 1792 m 24,4,-1
 1280 693 l 24,5,-1
 1280 512 l 25,6,-1
 1099 512 l 24,7,-1
 0 1611 l 25,8,-1
 0 1792 l 25,9,10
 0 1792 0 1792 181 1792 c 24,4,-1
EndSplineSet
Validated: 1
EndChar

StartChar: GS
Encoding: 29 29 28
Width: 1536
VWidth: 2048
Flags: MW
LayerCount: 2
Back
Fore
SplineSet
0 256 m 25,0,-1
 1280 256 l 25,1,-1
 1280 0 l 25,2,-1
 0 0 l 25,3,-1
 0 256 l 25,0,-1
256 1792 m 25,4,-1
 1024 1792 l 25,5,-1
 1024 512 l 24,6,-1
 256 512 l 25,7,-1
 256 768 l 24,8,-1
 768 768 l 24,9,-1
 768 1536 l 24,10,-1
 256 1536 l 24,11,12
 256 1536 256 1536 256 1792 c 25,4,-1
EndSplineSet
Validated: 1
EndChar

StartChar: RS
Encoding: 30 30 29
Width: 1536
VWidth: 2048
Flags: MW
LayerCount: 2
Back
Fore
SplineSet
0 1536 m 24,0,-1
 1024 1536 l 24,1,-1
 1024 1280 l 25,2,-1
 437 1280 l 24,3,-1
 1280 437 l 24,4,-1
 1280 256 l 25,5,-1
 1099 256 l 24,6,-1
 256 1099 l 25,7,-1
 256 512 l 25,8,-1
 0 512 l 25,9,10
 0 512 0 512 0 1536 c 24,0,-1
EndSplineSet
Validated: 1
EndChar

StartChar: US
Encoding: 31 31 30
Width: 1536
VWidth: 2048
Flags: MW
LayerCount: 2
Back
Fore
SplineSet
1280 1792 m 25,0,-1
 1280 512 l 25,1,-1
 437 512 l 24,2,-1
 768 181 l 24,3,-1
 768 0 l 25,4,-1
 587 0 l 24,5,-1
 0 587 l 25,6,-1
 0 693 l 24,7,-1
 587 1280 l 24,8,-1
 768 1280 l 25,9,-1
 768 1099 l 25,10,-1
 437 768 l 24,11,-1
 1024 768 l 24,12,-1
 1024 1792 l 24,13,14
 1024 1792 1024 1792 1280 1792 c 25,0,-1
EndSplineSet
Validated: 1
EndChar

StartChar: exclam
Encoding: 33 33 31
Width: 1536
VWidth: 2048
Flags: MW
LayerCount: 2
Back
Fore
SplineSet
512 256 m 29,0,-1
 768 256 l 25,1,-1
 768 0 l 25,2,-1
 512 0 l 25,3,-1
 512 256 l 29,0,-1
512 1792 m 25,4,-1
 768 1792 l 25,5,-1
 768 512 l 25,6,-1
 512 512 l 25,7,-1
 512 1792 l 25,4,-1
EndSplineSet
Validated: 1
EndChar

StartChar: quotedbl
Encoding: 34 34 32
Width: 1536
VWidth: 2048
Flags: MW
LayerCount: 2
Back
Fore
SplineSet
768 1792 m 24,0,-1
 1024 1792 l 24,1,-1
 1024 1024 l 25,2,-1
 768 1024 l 25,3,4
 768 1024 768 1024 768 1792 c 24,0,-1
256 1792 m 24,5,-1
 512 1792 l 24,6,-1
 512 1024 l 25,7,-1
 256 1024 l 25,8,9
 256 1024 256 1024 256 1792 c 24,5,-1
EndSplineSet
Validated: 1
EndChar

StartChar: numbersign
Encoding: 35 35 33
Width: 1536
VWidth: 2048
Flags: MW
LayerCount: 2
Back
Fore
SplineSet
768 1024 m 25,0,-1
 512 1024 l 25,1,-1
 512 768 l 24,2,-1
 768 768 l 17,3,4
 768 768 768 768 768 1024 c 25,0,-1
1024 1792 m 25,5,-1
 1024 1280 l 24,6,-1
 1280 1280 l 25,7,-1
 1280 1024 l 25,8,-1
 1024 1024 l 24,9,-1
 1024 768 l 24,10,-1
 1280 768 l 24,11,-1
 1280 512 l 25,12,-1
 1024 512 l 24,13,-1
 1024 0 l 24,14,-1
 768 0 l 25,15,-1
 768 512 l 25,16,-1
 512 512 l 25,17,-1
 512 0 l 25,18,-1
 256 0 l 25,19,-1
 256 512 l 25,20,-1
 0 512 l 25,21,-1
 0 768 l 24,22,-1
 256 768 l 24,23,-1
 256 1024 l 25,24,-1
 0 1024 l 25,25,-1
 0 1280 l 25,26,-1
 256 1280 l 25,27,-1
 256 1792 l 25,28,-1
 512 1792 l 25,29,-1
 512 1280 l 25,30,-1
 768 1280 l 25,31,-1
 768 1792 l 25,32,-1
 1024 1792 l 25,5,-1
EndSplineSet
Validated: 1
EndChar

StartChar: dollar
Encoding: 36 36 34
Width: 1536
VWidth: 2048
Flags: MW
LayerCount: 2
Back
Fore
SplineSet
768 768 m 9,0,-1
 768 512 l 25,1,2
 768 512 768 512 949 512 c 0,3,4
 1024 512 1024 512 1024 587 c 24,5,6
 1024 678 1024 678 1024 693 c 0,7,8
 1024 768 1024 768 949 768 c 16,9,10
 858 768 858 768 768 768 c 9,0,-1
331 1280 m 0,11,12
 256 1280 256 1280 256 1205 c 16,13,14
 256 1114 256 1114 256 1099 c 0,15,16
 256 1024 256 1024 329 1024 c 0,17,18
 330 1024 330 1024 331 1024 c 8,19,-1
 512 1024 l 25,20,-1
 512 1280 l 25,21,22
 512 1280 512 1280 331 1280 c 0,11,12
331 768 m 16,23,24
 0 768 0 768 0 1099 c 24,25,26
 0 1099 0 1099 0 1205 c 0,27,28
 0 1536 0 1536 331 1536 c 24,29,-1
 512 1536 l 24,30,-1
 512 1792 l 25,31,-1
 768 1792 l 25,32,-1
 768 1536 l 24,33,-1
 1280 1536 l 24,34,35
 1280 1536 1280 1536 1280 1280 c 25,36,-1
 768 1280 l 25,37,-1
 768 1024 l 25,38,-1
 949 1024 l 0,39,40
 1280 1024 1280 1024 1280 693 c 24,41,42
 1280 693 1280 693 1280 587 c 0,43,44
 1280 256 1280 256 949 256 c 24,45,-1
 768 256 l 25,46,-1
 768 0 l 25,47,-1
 512 0 l 25,48,-1
 512 256 l 25,49,-1
 0 256 l 25,50,-1
 0 512 l 25,51,-1
 512 512 l 25,52,53
 512 512 512 512 512 768 c 24,54,-1
 331 768 l 16,23,24
EndSplineSet
Validated: 1
EndChar

StartChar: percent
Encoding: 37 37 35
Width: 1536
VWidth: 2048
Flags: MW
LayerCount: 2
Back
Fore
SplineSet
1280 1355 m 25,0,-1
 181 256 l 24,1,-1
 0 256 l 25,2,-1
 0 437 l 24,3,-1
 1099 1536 l 24,4,-1
 1280 1536 l 24,5,6
 1280 1536 1280 1536 1280 1355 c 25,0,-1
768 512 m 25,7,-1
 1280 512 l 25,8,-1
 1280 0 l 25,9,-1
 768 0 l 25,10,-1
 768 512 l 25,7,-1
0 1792 m 25,11,-1
 512 1792 l 25,12,-1
 512 1280 l 25,13,-1
 0 1280 l 25,14,-1
 0 1792 l 25,11,-1
EndSplineSet
Validated: 1
EndChar

StartChar: ampersand
Encoding: 38 38 36
Width: 1536
VWidth: 2048
Flags: MW
LayerCount: 2
Back
Fore
SplineSet
1077 384 m 1,0,1
 1280 182 1280 182 1280 182 c 128,-1,2
 1280 182 1280 182 1280 0 c 25,3,4
 1280 0 1280 0 1099 0 c 0,5,6
 1099 0 1099 0 897 204 c 1,7,8
 897 204 897 204 693 0 c 1,9,10
 693 0 693 0 331 0 c 0,11,12
 0 0 0 0 0 331 c 25,13,14
 0 331 0 331 0 693 c 0,15,16
 0 693 0 693 203 896 c 9,17,-1
 0 1099 l 1,18,-1
 0 1461 l 17,19,20
 0 1792 0 1792 331 1792 c 24,21,22
 331 1792 331 1792 437 1792 c 0,23,24
 768 1792 768 1792 768 1469 c 0,25,26
 768 1465 768 1465 768 1461 c 9,27,28
 768 1461 768 1461 768 1099 c 1,29,-1
 565 896 l 1,30,31
 565 896 565 896 896 565 c 1,32,33
 896 565 896 565 1099 768 c 0,34,35
 1099 768 1099 768 1280 768 c 1,36,37
 1280 768 1280 768 1280 587 c 1,38,39
 1077 384 1077 384 1077 384 c 1,0,1
716 385 m 1,40,41
 716 385 716 385 387 717 c 1,42,43
 387 717 387 717 256 587 c 9,44,45
 256 422 256 422 256 331 c 0,46,47
 256 256 256 256 331 256 c 24,48,49
 478 256 478 256 587 256 c 0,50,51
 587 256 587 256 716 385 c 1,40,41
384 1077 m 16,52,-1
 512 1205 l 1,53,54
 512 1373 512 1373 512 1461 c 0,55,56
 512 1536 512 1536 437 1536 c 24,57,-1
 331 1536 l 0,58,59
 256 1536 256 1536 256 1461 c 24,60,61
 256 1461 256 1461 256 1205 c 0,62,-1
 384 1077 l 16,52,-1
EndSplineSet
Validated: 1
EndChar

StartChar: quotesingle
Encoding: 39 39 37
Width: 1536
VWidth: 2048
Flags: MW
LayerCount: 2
Back
Fore
SplineSet
512 1792 m 25,0,-1
 768 1792 l 25,1,-1
 768 1024 l 25,2,-1
 512 1024 l 25,3,-1
 512 1792 l 25,0,-1
EndSplineSet
Validated: 1
EndChar

StartChar: parenleft
Encoding: 40 40 38
Width: 1536
VWidth: 2048
Flags: MW
LayerCount: 2
Back
Fore
SplineSet
768 1792 m 25,0,-1
 768 1611 l 1,1,-1
 256 1099 l 0,2,3
 256 1099 256 1099 256 693 c 1,4,-1
 768 181 l 0,5,6
 768 181 768 181 768 0 c 25,7,8
 768 0 768 0 587 0 c 24,9,10
 587 0 587 0 0 587 c 25,11,12
 0 1190 0 1190 0 1205 c 28,13,14
 0 1205 0 1205 587 1792 c 28,15,16
 677 1792 677 1792 768 1792 c 25,0,-1
EndSplineSet
Validated: 1
EndChar

StartChar: parenright
Encoding: 41 41 39
Width: 1536
VWidth: 2048
Flags: MW
LayerCount: 2
Back
Fore
SplineSet
711 1792 m 25,0,-1
 1280 1205 l 24,1,-1
 1280 587 l 25,2,-1
 693 0 l 25,3,-1
 512 0 l 25,4,-1
 512 182 l 24,5,-1
 1024 693 l 24,6,-1
 1024 1099 l 25,7,-1
 512 1611 l 25,8,-1
 512 1792 l 25,9,-1
 711 1792 l 25,0,-1
EndSplineSet
Validated: 1
EndChar

StartChar: asterisk
Encoding: 42 42 40
Width: 1536
VWidth: 2048
Flags: MW
LayerCount: 2
Back
Fore
SplineSet
822 896 m 1,0,1
 1272 454 1272 454 1281 437 c 0,2,3
 1281 437 1281 437 1281 256 c 25,4,5
 1281 256 1281 256 1100 256 c 24,6,7
 1100 256 1100 256 769 587 c 25,8,-1
 769 0 l 25,9,-1
 513 0 l 25,10,-1
 513 587 l 25,11,-1
 182 256 l 17,12,13
 1 256 1 256 1 256 c 25,14,15
 1 437 1 437 1 437 c 130,-1,16
 1 437 1 437 460 896 c 1,17,18
 460 896 460 896 1 1355 c 1,19,20
 1 1536 1 1536 1 1536 c 152,-1,21
 1 1536 1 1536 182 1536 c 24,22,23
 182 1536 182 1536 513 1205 c 24,24,25
 513 1205 513 1205 513 1792 c 25,26,-1
 769 1792 l 25,27,-1
 769 1205 l 0,28,-1
 1099 1536 l 24,29,30
 1099 1536 1099 1536 1281 1536 c 0,31,32
 1281 1536 1281 1536 1281 1355 c 1,33,34
 1281 1355 1281 1355 822 896 c 1,0,1
EndSplineSet
Validated: 1
EndChar

StartChar: plus
Encoding: 43 43 41
Width: 1536
VWidth: 2048
Flags: MW
LayerCount: 2
Back
Fore
SplineSet
512 1536 m 29,0,-1
 768 1536 l 25,1,-1
 768 1024 l 25,2,-1
 1280 1024 l 25,3,-1
 1280 768 l 24,4,-1
 768 768 l 24,5,-1
 768 256 l 25,6,-1
 512 256 l 25,7,-1
 512 768 l 24,8,-1
 0 768 l 24,9,-1
 0 1024 l 25,10,-1
 512 1024 l 25,11,-1
 512 1536 l 29,0,-1
EndSplineSet
Validated: 1
EndChar

StartChar: comma
Encoding: 44 44 42
Width: 1536
VWidth: 2048
Flags: MW
LayerCount: 2
Back
Fore
SplineSet
768 331 m 0,0,1
 768 0 768 0 437 0 c 24,2,-1
 256 0 l 25,3,-1
 256 256 l 25,4,-1
 437 256 l 0,5,6
 512 256 512 256 512 331 c 24,7,-1
 512 768 l 24,8,-1
 768 768 l 24,9,10
 768 384 768 384 768 331 c 0,0,1
EndSplineSet
Validated: 1
EndChar

StartChar: hyphen
Encoding: 45 45 43
Width: 1536
VWidth: 2048
Flags: MW
LayerCount: 2
Back
Fore
SplineSet
0 1024 m 25,0,-1
 1280 1024 l 25,1,-1
 1280 768 l 24,2,-1
 0 768 l 24,3,4
 0 768 0 768 0 1024 c 25,0,-1
EndSplineSet
Validated: 1
EndChar

StartChar: period
Encoding: 46 46 44
Width: 1536
VWidth: 2048
Flags: MW
LayerCount: 2
Back
Fore
SplineSet
512 256 m 29,0,-1
 768 256 l 25,1,-1
 768 0 l 25,2,-1
 512 0 l 25,3,-1
 512 256 l 29,0,-1
EndSplineSet
Validated: 1
EndChar

StartChar: slash
Encoding: 47 47 45
Width: 1536
VWidth: 2048
Flags: MW
LayerCount: 2
Back
Fore
SplineSet
199 256 m 25,0,-1
 0 256 l 25,1,-1
 0 455 l 24,2,-1
 1081 1536 l 25,3,-1
 1280 1536 l 25,4,-1
 1280 1337 l 25,5,6
 1280 1337 1280 1337 199 256 c 25,0,-1
EndSplineSet
Validated: 1
EndChar

StartChar: zero
Encoding: 48 48 46
Width: 1536
VWidth: 2048
Flags: MW
LayerCount: 2
Back
Fore
SplineSet
1024 331 m 9,0,-1
 1024 1099 l 1,1,2
 1024 1099 1024 1099 256 331 c 1,3,4
 256 256 256 256 331 256 c 24,5,-1
 949 256 l 0,6,7
 1024 256 1024 256 1024 331 c 9,0,-1
1024 1461 m 0,8,9
 1024 1536 1024 1536 949 1536 c 0,10,-1
 331 1536 l 0,11,12
 256 1536 256 1536 256 1461 c 24,13,14
 256 1461 256 1461 256 693 c 0,15,16
 256 693 256 693 1024 1461 c 0,8,9
949 1792 m 0,17,18
 1280 1792 1280 1792 1280 1461 c 24,19,20
 1280 730 1280 730 1280 331 c 0,21,22
 1280 0 1280 0 949 0 c 24,23,-1
 331 0 l 0,24,25
 0 0 0 0 0 331 c 24,26,27
 0 1062 0 1062 0 1461 c 0,28,29
 0 1792 0 1792 331 1792 c 24,30,31
 331 1792 331 1792 949 1792 c 0,17,18
EndSplineSet
Validated: 1
EndChar

StartChar: one
Encoding: 49 49 47
Width: 1536
VWidth: 2048
Flags: MW
LayerCount: 2
Back
Fore
SplineSet
512 1734 m 0,0,1
 569 1792 569 1792 640 1792 c 128,-1,2
 711 1792 711 1792 768 1734 c 8,3,-1
 768 331 l 0,4,5
 768 256 768 256 842 256 c 24,6,-1
 949 256 l 0,7,8
 1024 199 1024 199 1024 126 c 0,9,10
 1024 75 1024 75 949 0 c 1,11,12
 949 0 949 0 331 0 c 0,13,14
 256 75 256 75 256 128 c 0,15,16
 256 199 256 199 331 256 c 8,17,-1
 437 256 l 0,18,19
 512 256 512 256 512 331 c 24,20,21
 512 1205 512 1205 512 1205 c 0,22,23
 512 1280 512 1280 437 1280 c 24,24,-1
 256 1280 l 17,25,26
 211 1344 211 1344 211 1408 c 128,-1,27
 211 1472 211 1472 256 1536 c 8,28,-1
 437 1536 l 0,29,30
 512 1536 512 1536 512 1611 c 24,31,-1
 512 1734 l 0,0,1
EndSplineSet
Validated: 1
EndChar

StartChar: two
Encoding: 50 50 48
Width: 1536
VWidth: 2048
Flags: MW
LayerCount: 2
Back
Fore
SplineSet
0 1461 m 0,0,1
 0 1792 0 1792 331 1792 c 24,2,-1
 949 1792 l 0,3,4
 1280 1792 1280 1792 1280 1461 c 24,5,6
 1280 1114 1280 1114 1280 1099 c 0,7,8
 1280 768 1280 768 949 768 c 24,9,-1
 693 768 l 17,10,11
 693 768 693 768 256 331 c 0,12,13
 256 256 256 256 329 256 c 0,14,15
 330 256 330 256 331 256 c 8,16,-1
 1205 256 l 0,17,18
 1280 199 1280 199 1280 136 c 0,19,20
 1280 135 1280 135 1280 134 c 0,21,22
 1280 76 1280 76 1205 0 c 0,23,24
 1205 0 1205 0 0 0 c 25,25,26
 0 0 0 0 0 437 c 0,27,28
 0 437 0 437 512 949 c 0,29,30
 587 1024 587 1024 666 1024 c 24,31,32
 666 1024 666 1024 949 1024 c 0,33,34
 1024 1024 1024 1024 1024 1099 c 24,35,36
 1024 1318 1024 1318 1024 1461 c 0,37,38
 1024 1536 1024 1536 949 1536 c 24,39,-1
 331 1536 l 0,40,41
 256 1536 256 1536 256 1461 c 24,42,-1
 256 1337 l 0,43,44
 199 1280 199 1280 129 1280 c 1,45,46
 57 1280 57 1280 0 1337 c 1,47,48
 0 1337 0 1337 0 1461 c 0,0,1
EndSplineSet
Validated: 1
EndChar

StartChar: three
Encoding: 51 51 49
Width: 1536
VWidth: 2048
Flags: MW
LayerCount: 2
Back
Fore
SplineSet
75 1792 m 0,0,1
 75 1792 75 1792 1280 1792 c 25,2,3
 1280 1792 1280 1792 1280 1355 c 1,4,5
 1280 1355 1280 1355 1024 1099 c 0,6,7
 1024 1099 1024 1099 1024 1024 c 1,8,9
 1280 1024 1280 1024 1280 696 c 0,10,11
 1280 694 1280 694 1280 693 c 0,12,13
 1280 693 1280 693 1280 331 c 17,14,15
 1280 0 1280 0 949 0 c 24,16,17
 342 0 342 0 331 0 c 0,18,19
 0 0 0 0 0 331 c 25,20,21
 0 455 0 455 0 455 c 0,22,23
 57 512 57 512 125 512 c 0,24,25
 199 512 199 512 256 455 c 0,26,-1
 256 331 l 17,27,28
 256 256 256 256 331 256 c 24,29,30
 331 256 331 256 949 256 c 0,31,32
 1024 256 1024 256 1024 331 c 25,33,34
 1024 550 1024 550 1024 693 c 0,35,36
 1024 768 1024 768 949 768 c 24,37,-1
 569 768 l 0,38,39
 512 825 512 825 512 896 c 128,-1,40
 512 967 512 967 569 1024 c 8,41,-1
 587 1024 l 24,42,43
 587 1024 587 1024 1024 1461 c 17,44,45
 1024 1536 1024 1536 949 1536 c 24,46,-1
 75 1536 l 0,47,48
 0 1593 0 1593 0 1665 c 0,49,50
 0 1734 0 1734 75 1792 c 0,0,1
EndSplineSet
Validated: 1
EndChar

StartChar: four
Encoding: 52 52 50
Width: 1536
VWidth: 2048
Flags: MW
LayerCount: 2
Back
Fore
SplineSet
768 768 m 24,0,-1
 768 1355 l 25,1,-1
 256 843 l 25,2,-1
 256 768 l 24,3,4
 256 768 256 768 768 768 c 24,0,-1
1024 1792 m 24,5,-1
 1024 768 l 24,6,-1
 1223 768 l 0,7,8
 1280 704 1280 704 1280 640 c 128,-1,9
 1280 576 1280 576 1223 512 c 8,10,-1
 1024 512 l 25,11,-1
 1024 0 l 25,12,-1
 768 0 l 25,13,-1
 768 512 l 25,14,-1
 0 512 l 25,15,-1
 0 949 l 25,16,-1
 843 1792 l 24,17,18
 843 1792 843 1792 1024 1792 c 24,5,-1
EndSplineSet
Validated: 1
EndChar

StartChar: five
Encoding: 53 53 51
Width: 1536
VWidth: 2048
Flags: MW
LayerCount: 2
Back
Fore
SplineSet
1223 1792 m 0,0,1
 1280 1730 1280 1730 1280 1666 c 128,-1,2
 1280 1602 1280 1602 1223 1536 c 8,3,-1
 256 1536 l 24,4,-1
 256 1280 l 25,5,-1
 949 1280 l 0,6,7
 1280 1280 1280 1280 1280 949 c 24,8,9
 1280 331 1280 331 1280 331 c 0,10,11
 1280 0 1280 0 949 0 c 24,12,-1
 331 0 l 0,13,14
 0 0 0 0 0 331 c 24,15,16
 0 455 0 455 0 455 c 0,17,18
 65 512 65 512 129 512 c 128,-1,19
 193 512 193 512 256 455 c 8,20,-1
 256 331 l 0,21,22
 256 256 256 256 331 256 c 24,23,-1
 949 256 l 0,24,25
 1024 256 1024 256 1024 331 c 24,26,27
 1024 949 1024 949 1024 949 c 0,28,29
 1024 1024 1024 1024 949 1024 c 24,30,-1
 0 1024 l 25,31,-1
 0 1792 l 18,32,33
 0 1792 0 1792 1223 1792 c 0,0,1
EndSplineSet
Validated: 1
EndChar

StartChar: six
Encoding: 54 54 52
Width: 1536
VWidth: 2048
Flags: MW
LayerCount: 2
Back
Fore
SplineSet
256 331 m 0,0,1
 256 256 256 256 331 256 c 24,2,-1
 949 256 l 0,3,4
 1024 256 1024 256 1024 331 c 24,5,6
 1024 550 1024 550 1024 693 c 0,7,8
 1024 768 1024 768 949 768 c 24,9,10
 949 768 949 768 256 768 c 24,11,12
 256 768 256 768 256 331 c 0,0,1
1223 1792 m 0,13,14
 1280 1749 1280 1749 1280 1671 c 128,-1,15
 1280 1593 1280 1593 1223 1536 c 0,16,-1
 693 1536 l 25,17,-1
 256 1099 l 25,18,-1
 256 1024 l 25,19,-1
 949 1024 l 0,20,21
 1280 1024 1280 1024 1280 693 c 24,22,23
 1280 346 1280 346 1280 331 c 0,24,25
 1280 0 1280 0 949 0 c 24,26,-1
 331 0 l 0,27,28
 0 0 0 0 0 331 c 24,29,30
 0 331 0 331 0 1205 c 24,31,32
 0 1205 0 1205 587 1792 c 24,33,34
 587 1792 587 1792 1223 1792 c 0,13,14
EndSplineSet
Validated: 1
EndChar

StartChar: seven
Encoding: 55 55 53
Width: 1536
VWidth: 2048
Flags: MW
LayerCount: 2
Back
Fore
SplineSet
0 1792 m 25,0,-1
 1280 1792 l 25,1,-1
 1280 1355 l 25,2,-1
 512 587 l 25,3,-1
 512 0 l 25,4,-1
 256 0 l 25,5,-1
 256 693 l 24,6,-1
 1024 1461 l 25,7,-1
 1024 1536 l 25,8,-1
 0 1536 l 17,9,10
 0 1536 0 1536 0 1792 c 25,0,-1
EndSplineSet
Validated: 1
EndChar

StartChar: eight
Encoding: 56 56 54
Width: 1536
VWidth: 2048
Flags: MW
LayerCount: 2
Back
Fore
SplineSet
256 331 m 0,0,1
 256 256 256 256 331 256 c 24,2,-1
 949 256 l 0,3,4
 1024 256 1024 256 1024 331 c 24,5,6
 1024 693 1024 693 1024 693 c 1,7,8
 1024 768 1024 768 949 768 c 1,9,10
 949 768 949 768 331 768 c 0,11,12
 256 768 256 768 256 693 c 24,13,14
 256 608 256 608 256 331 c 0,0,1
256 1099 m 0,15,16
 256 1024 256 1024 331 1024 c 24,17,-1
 949 1024 l 0,18,19
 1024 1024 1024 1024 1024 1099 c 24,20,21
 1024 1318 1024 1318 1024 1461 c 0,22,23
 1024 1536 1024 1536 949 1536 c 24,24,-1
 331 1536 l 0,25,26
 256 1536 256 1536 256 1461 c 24,27,28
 256 1389 256 1389 256 1099 c 0,15,16
1168 896 m 1,29,30
 1280 839 1280 839 1280 693 c 0,31,32
 1280 331 1280 331 1280 331 c 0,33,34
 1280 0 1280 0 949 0 c 24,35,36
 331 0 331 0 331 0 c 0,37,38
 0 0 0 0 0 331 c 24,39,40
 0 331 0 331 0 693 c 0,41,42
 1 834 1 834 112 896 c 1,43,44
 0 957 0 957 0 1099 c 0,45,46
 0 1461 0 1461 0 1461 c 0,47,48
 0 1792 0 1792 331 1792 c 24,49,50
 949 1792 949 1792 949 1792 c 0,51,52
 1280 1792 1280 1792 1280 1461 c 24,53,54
 1280 1446 1280 1446 1280 1099 c 0,55,56
 1280 954 1280 954 1168 896 c 1,29,30
EndSplineSet
Validated: 1
EndChar

StartChar: nine
Encoding: 57 57 55
Width: 1536
VWidth: 2048
Flags: MW
LayerCount: 2
Back
Fore
SplineSet
1024 1461 m 0,0,1
 1024 1536 1024 1536 949 1536 c 24,2,-1
 331 1536 l 0,3,4
 256 1536 256 1536 256 1461 c 24,5,6
 256 1242 256 1242 256 1099 c 0,7,8
 256 1024 256 1024 331 1024 c 24,9,-1
 1024 1024 l 25,10,11
 1024 1280 1024 1280 1024 1461 c 0,0,1
949 1792 m 0,12,13
 1280 1792 1280 1792 1280 1461 c 24,14,15
 1280 1461 1280 1461 1280 587 c 25,16,-1
 693 0 l 1,17,-1
 57 0 l 17,18,19
 0 63 0 63 0 127 c 128,-1,20
 0 191 0 191 57 256 c 0,21,-1
 587 256 l 24,22,23
 587 256 587 256 1024 693 c 24,24,25
 1024 693 1024 693 1024 768 c 24,26,-1
 331 768 l 0,27,28
 0 768 0 768 0 1099 c 24,29,30
 0 1446 0 1446 0 1461 c 0,31,32
 0 1792 0 1792 331 1792 c 24,33,34
 331 1792 331 1792 949 1792 c 0,12,13
EndSplineSet
Validated: 1
EndChar

StartChar: colon
Encoding: 58 58 56
Width: 1536
VWidth: 2048
Flags: MW
LayerCount: 2
Back
Fore
SplineSet
512 768 m 29,0,-1
 768 768 l 25,1,-1
 768 512 l 25,2,-1
 512 512 l 25,3,-1
 512 768 l 29,0,-1
512 1280 m 25,4,-1
 768 1280 l 25,5,-1
 768 1024 l 25,6,-1
 512 1024 l 25,7,-1
 512 1280 l 25,4,-1
EndSplineSet
Validated: 1
EndChar

StartChar: semicolon
Encoding: 59 59 57
Width: 1536
VWidth: 2048
Flags: MW
LayerCount: 2
Back
Fore
SplineSet
768 768 m 24,0,1
 768 768 768 768 768 331 c 0,2,3
 768 0 768 0 437 0 c 24,4,-1
 256 0 l 25,5,-1
 256 256 l 25,6,-1
 437 256 l 0,7,8
 512 256 512 256 512 331 c 24,9,-1
 512 768 l 24,10,11
 512 768 512 768 768 768 c 24,0,1
512 1280 m 25,12,-1
 768 1280 l 25,13,-1
 768 1024 l 25,14,-1
 512 1024 l 25,15,-1
 512 1280 l 25,12,-1
EndSplineSet
Validated: 1
EndChar

StartChar: less
Encoding: 60 60 58
Width: 1536
VWidth: 2048
Flags: MW
LayerCount: 2
Back
Fore
SplineSet
309 896 m 1,0,1
 309 896 309 896 1024 182 c 0,2,3
 1024 182 1024 182 1024 0 c 25,4,5
 1024 0 1024 0 843 0 c 24,6,7
 843 0 843 0 0 843 c 25,8,-1
 0 949 l 25,9,10
 0 949 0 949 843 1792 c 24,11,12
 843 1792 843 1792 1024 1792 c 24,13,14
 1024 1792 1024 1792 1024 1611 c 1,15,-1
 309 896 l 1,0,1
EndSplineSet
Validated: 1
EndChar

StartChar: equal
Encoding: 61 61 59
Width: 1536
VWidth: 2048
Flags: MW
LayerCount: 2
Back
Fore
SplineSet
0 768 m 24,0,-1
 1280 768 l 24,1,-1
 1280 512 l 25,2,-1
 0 512 l 25,3,4
 0 512 0 512 0 768 c 24,0,-1
0 1280 m 25,5,-1
 1280 1280 l 25,6,-1
 1280 1024 l 25,7,-1
 0 1024 l 25,8,-1
 0 1280 l 25,5,-1
EndSplineSet
Validated: 1
EndChar

StartChar: greater
Encoding: 62 62 60
Width: 1536
VWidth: 2048
Flags: MW
LayerCount: 2
Back
Fore
SplineSet
971 896 m 129,-1,1
 971 896 971 896 256 1611 c 1,2,-1
 256 1792 l 25,3,4
 437 1792 437 1792 437 1792 c 24,5,6
 1280 949 1280 949 1280 949 c 25,7,8
 1280 843 1280 843 1280 843 c 25,9,10
 437 0 437 0 437 0 c 24,11,12
 256 0 256 0 256 0 c 25,13,14
 256 181 256 181 256 181 c 0,15,0
 971 896 971 896 971 896 c 129,-1,1
EndSplineSet
Validated: 1
EndChar

StartChar: question
Encoding: 63 63 61
Width: 1536
VWidth: 2048
Flags: MW
LayerCount: 2
Back
Fore
SplineSet
949 1792 m 0,0,1
 1280 1792 1280 1792 1280 1461 c 25,2,-1
 1280 1355 l 1,3,-1
 768 843 l 25,4,-1
 768 512 l 1,5,-1
 512 512 l 25,6,-1
 512 949 l 25,7,-1
 1024 1461 l 17,8,9
 1024 1536 1024 1536 949 1536 c 24,10,11
 949 1536 949 1536 331 1536 c 0,12,13
 256 1536 256 1536 256 1461 c 25,14,-1
 256 1337 l 25,15,-1
 0 1337 l 25,16,-1
 0 1461 l 17,17,18
 0 1792 0 1792 331 1792 c 24,19,20
 331 1792 331 1792 949 1792 c 0,0,1
512 256 m 25,21,-1
 768 256 l 25,22,-1
 768 0 l 25,23,-1
 512 0 l 25,24,-1
 512 256 l 25,21,-1
EndSplineSet
Validated: 1
EndChar

StartChar: at
Encoding: 64 64 62
Width: 1536
VWidth: 2048
Flags: MW
LayerCount: 2
Back
Fore
SplineSet
1024 1461 m 1,0,1
 1024 1536 1024 1536 949 1536 c 0,2,3
 640 1536 640 1536 331 1536 c 1,4,5
 256 1536 256 1536 256 1461 c 1,6,7
 256 1461 256 1461 256 331 c 1,8,9
 256 256 256 256 331 256 c 1,10,11
 331 256 331 256 1223 256 c 0,12,13
 1279 182 1279 182 1279 137 c 0,14,15
 1278 73 1278 73 1223 0 c 0,16,17
 1223 0 1223 0 313 0 c 0,18,19
 0 0 0 0 0 327 c 1,20,21
 0 1026 0 1026 0 1461 c 0,22,23
 0 1792 0 1792 331 1792 c 0,24,25
 331 1792 331 1792 949 1792 c 0,26,27
 1280 1792 1280 1792 1280 1461 c 0,28,29
 1280 986 1280 986 1280 839 c 0,30,31
 1280 512 1280 512 949 512 c 0,32,33
 896 512 896 512 843 512 c 0,34,35
 512 512 512 512 512 843 c 0,36,37
 512 843 512 843 512 1223 c 0,38,39
 569 1280 569 1280 640 1280 c 128,-1,40
 711 1280 711 1280 768 1223 c 0,41,-1
 768 896 l 0,42,43
 768 825 768 825 843 825 c 0,44,45
 843 825 843 825 949 825 c 0,46,47
 1024 825 1024 825 1024 896 c 0,48,49
 1024 896 1024 896 1024 1461 c 1,0,1
EndSplineSet
Validated: 1
EndChar

StartChar: A
Encoding: 65 65 63
Width: 1536
VWidth: 2048
Flags: MW
LayerCount: 2
Back
Fore
SplineSet
640 1483 m 1,0,1
 640 1483 640 1483 256 1099 c 1,2,-1
 256 825 l 0,3,4
 256 768 256 768 313 768 c 24,5,6
 313 768 313 768 967 768 c 0,7,8
 1024 768 1024 768 1024 825 c 24,9,10
 1024 825 1024 825 1024 1099 c 0,11,-1
 640 1483 l 1,0,1
693 1792 m 17,12,13
 693 1792 693 1792 1280 1205 c 24,14,-1
 1280 0 l 25,15,-1
 1024 0 l 25,16,-1
 1024 455 l 0,17,18
 1024 512 1024 512 967 512 c 24,19,20
 640 512 640 512 313 512 c 24,21,22
 256 512 256 512 256 455 c 24,23,-1
 256 0 l 25,24,-1
 0 0 l 25,25,-1
 0 1205 l 24,26,-1
 587 1792 l 24,27,28
 587 1792 587 1792 693 1792 c 17,12,13
EndSplineSet
Validated: 1
EndChar

StartChar: B
Encoding: 66 66 64
Width: 1536
VWidth: 2048
Flags: MW
LayerCount: 2
Back
Fore
SplineSet
256 768 m 0,0,-1
 256 256 l 1,1,-1
 967 256 l 0,2,3
 1024 256 1024 256 1024 313 c 1,4,5
 1024 640 1024 640 1024 711 c 0,6,7
 1024 768 1024 768 967 768 c 1,8,9
 256 768 256 768 256 768 c 0,0,-1
967 1024 m 1,10,11
 1024 1024 1024 1024 1024 1081 c 0,12,-1
 1024 1465 l 1,13,14
 1024 1536 1024 1536 967 1536 c 0,15,-1
 256 1536 l 1,16,-1
 256 1024 l 1,17,-1
 967 1024 l 1,10,11
967 1792 m 0,18,19
 1280 1792 1280 1792 1280 1465 c 1,20,21
 1280 1180 1280 1180 1280 1081 c 0,22,23
 1280 896 1280 896 1152 896 c 1,24,25
 1280 896 1280 896 1280 710 c 0,26,-1
 1280 313 l 1,27,28
 1280 0 1280 0 967 0 c 0,29,-1
 0 0 l 1,30,-1
 0 1792 l 1,31,32
 0 1792 0 1792 967 1792 c 0,18,19
EndSplineSet
Validated: 1
EndChar

StartChar: C
Encoding: 67 67 65
Width: 1536
VWidth: 2048
Flags: MW
LayerCount: 2
Back
Fore
SplineSet
256 313 m 1,0,1
 256 256 256 256 313 256 c 0,2,3
 640 256 640 256 967 256 c 0,4,5
 1024 256 1024 256 1024 313 c 0,6,7
 1024 313 1024 313 1024 512 c 1,8,9
 1024 512 1024 512 1280 512 c 1,10,-1
 1280 313 l 1,11,12
 1280 0 1280 0 967 0 c 0,13,14
 640 0 640 0 313 0 c 0,15,16
 0 0 0 0 0 313 c 1,17,18
 0 313 0 313 0 512 c 1,19,20
 0 512 0 512 0 1280 c 1,21,-1
 0 1465 l 1,22,23
 0 1792 0 1792 313 1792 c 0,24,25
 640 1792 640 1792 967 1792 c 0,26,27
 1280 1792 1280 1792 1280 1465 c 1,28,29
 1280 1465 1280 1465 1280 1280 c 1,30,-1
 1024 1279 l 1,31,32
 1024 1464 1024 1464 1024 1465 c 0,33,34
 1024 1536 1024 1536 967 1536 c 0,35,36
 967 1536 967 1536 313 1536 c 1,37,38
 256 1536 256 1536 256 1465 c 1,39,40
 256 889 256 889 256 313 c 1,0,1
EndSplineSet
Validated: 1
EndChar

StartChar: D
Encoding: 68 68 66
Width: 1536
VWidth: 2048
Flags: MW
LayerCount: 2
Back
Fore
SplineSet
967 256 m 0,0,1
 1024 256 1024 256 1024 313 c 1,2,3
 1024 313 1024 313 1024 1465 c 1,4,5
 1024 1536 1024 1536 967 1536 c 1,6,7
 967 1536 967 1536 256 1536 c 1,8,-1
 256 256 l 1,9,10
 612 256 612 256 967 256 c 0,0,1
967 1792 m 0,11,12
 1280 1789 1280 1789 1280 1465 c 0,13,14
 1280 1236 1280 1236 1280 313 c 0,15,16
 1280 0 1280 0 967 0 c 1,17,18
 967 0 967 0 0 0 c 1,19,20
 0 0 0 0 0 1792 c 0,21,22
 0 1792 0 1792 967 1792 c 0,11,12
EndSplineSet
Validated: 1
EndChar

StartChar: E
Encoding: 69 69 67
Width: 1536
VWidth: 2048
Flags: MW
LayerCount: 2
Back
Fore
SplineSet
0 0 m 29,0,-1
 0 1792 l 25,1,-1
 1280 1792 l 25,2,-1
 1280 1536 l 25,3,-1
 256 1536 l 25,4,-1
 256 1024 l 25,5,-1
 1024 1024 l 25,6,-1
 1024 768 l 25,7,-1
 256 768 l 25,8,-1
 256 256 l 25,9,-1
 1280 256 l 25,10,-1
 1280 0 l 25,11,-1
 0 0 l 29,0,-1
EndSplineSet
Validated: 1
EndChar

StartChar: F
Encoding: 70 70 68
Width: 1536
VWidth: 2048
Flags: MW
LayerCount: 2
Back
Fore
SplineSet
0 0 m 29,0,-1
 0 1792 l 25,1,-1
 1280 1792 l 25,2,-1
 1280 1536 l 25,3,-1
 256 1536 l 25,4,-1
 256 1024 l 25,5,-1
 1024 1024 l 25,6,-1
 1024 768 l 25,7,-1
 256 768 l 25,8,-1
 256 0 l 25,9,-1
 0 0 l 29,0,-1
EndSplineSet
Validated: 1
EndChar

StartChar: G
Encoding: 71 71 69
Width: 1536
VWidth: 2048
Flags: MW
LayerCount: 2
Back
Fore
SplineSet
0 1465 m 1,0,1
 0 1792 0 1792 313 1792 c 1,2,3
 313 1792 313 1792 1280 1792 c 25,4,-1
 1280 1536 l 1,5,-1
 313 1536 l 1,6,7
 256 1536 256 1536 256 1465 c 1,8,9
 256 1465 256 1465 256 313 c 1,10,11
 256 256 256 256 313 256 c 1,12,13
 313 256 313 256 1024 256 c 1,14,-1
 1024 512 l 1,15,-1
 824 512 l 0,16,17
 768 569 768 569 768 667 c 0,18,19
 768 711 768 711 824 768 c 0,20,21
 824 768 824 768 1280 768 c 1,22,23
 1280 768 1280 768 1280 0 c 25,24,-1
 313 0 l 0,25,26
 0 0 0 0 0 313 c 1,27,28
 0 610 0 610 0 1465 c 1,0,1
EndSplineSet
Validated: 1
EndChar

StartChar: H
Encoding: 72 72 70
Width: 1536
VWidth: 2048
Flags: MW
LayerCount: 2
Back
Fore
SplineSet
0 0 m 29,0,-1
 0 1792 l 25,1,-1
 256 1792 l 25,2,-1
 256 1024 l 25,3,-1
 1024 1024 l 25,4,-1
 1024 1792 l 25,5,-1
 1280 1792 l 25,6,-1
 1280 0 l 25,7,-1
 1024 0 l 25,8,-1
 1024 768 l 25,9,-1
 256 768 l 25,10,-1
 256 0 l 25,11,-1
 0 0 l 29,0,-1
EndSplineSet
Validated: 1
EndChar

StartChar: I
Encoding: 73 73 71
Width: 1536
VWidth: 2048
Flags: MW
LayerCount: 2
Back
Fore
SplineSet
256 0 m 25,0,-1
 256 256 l 25,1,-1
 512 256 l 25,2,-1
 512 1536 l 25,3,-1
 256 1536 l 25,4,-1
 256 1792 l 25,5,-1
 1024 1792 l 25,6,-1
 1024 1536 l 25,7,-1
 768 1536 l 25,8,-1
 768 256 l 25,9,-1
 1024 256 l 25,10,-1
 1024 0 l 25,11,-1
 256 0 l 25,0,-1
EndSplineSet
Validated: 1
EndChar

StartChar: J
Encoding: 74 74 72
Width: 1536
VWidth: 2048
Flags: MW
LayerCount: 2
Back
Fore
SplineSet
256 512 m 1,0,1
 256 384 256 384 256 313 c 0,2,3
 256 256 256 256 313 256 c 0,4,5
 640 256 640 256 967 256 c 0,6,7
 1024 256 1024 256 1024 313 c 1,8,9
 1024 1054 1024 1054 1024 1792 c 1,10,-1
 1280 1792 l 1,11,12
 1280 510 1280 510 1280 313 c 1,13,14
 1280 1 1280 1 967 0 c 0,15,16
 967 0 967 0 313 0 c 0,17,18
 0 0 0 0 0 313 c 1,19,20
 0 313 0 313 0 512 c 1,21,22
 0 512 0 512 256 512 c 1,0,1
EndSplineSet
Validated: 1
EndChar

StartChar: K
Encoding: 75 75 73
Width: 1536
VWidth: 2048
Flags: MW
LayerCount: 2
Back
Fore
SplineSet
565 896 m 1,0,1
 565 896 565 896 1280 182 c 0,2,3
 1280 182 1280 182 1280 0 c 25,4,5
 1280 0 1280 0 1099 0 c 24,6,-1
 331 768 l 24,7,8
 331 768 331 768 256 768 c 24,9,-1
 256 0 l 25,10,-1
 0 0 l 25,11,-1
 0 1792 l 25,12,-1
 256 1792 l 25,13,-1
 256 1024 l 25,14,15
 256 1024 256 1024 331 1024 c 24,16,-1
 1099 1792 l 24,17,18
 1099 1792 1099 1792 1280 1792 c 25,19,-1
 1280 1611 l 1,20,-1
 565 896 l 1,0,1
EndSplineSet
Validated: 1
EndChar

StartChar: L
Encoding: 76 76 74
Width: 1536
VWidth: 2048
Flags: MW
LayerCount: 2
Back
Fore
SplineSet
0 0 m 29,0,-1
 0 1792 l 25,1,-1
 256 1792 l 25,2,-1
 256 256 l 25,3,-1
 1280 256 l 25,4,-1
 1280 0 l 25,5,-1
 0 0 l 29,0,-1
EndSplineSet
Validated: 1
EndChar

StartChar: M
Encoding: 77 77 75
Width: 1536
VWidth: 2048
Flags: MW
LayerCount: 2
Back
Fore
SplineSet
640 1333 m 1,0,1
 640 1333 640 1333 1099 1792 c 0,2,3
 1099 1792 1099 1792 1280 1792 c 25,4,-1
 1280 0 l 25,5,-1
 1024 0 l 25,6,-1
 1024 1280 l 24,7,8
 1024 1280 1024 1280 949 1280 c 24,9,10
 949 1280 949 1280 768 1099 c 1,11,-1
 768 825 l 0,12,13
 704 768 704 768 640 768 c 128,-1,14
 576 768 576 768 512 825 c 0,15,-1
 512 1099 l 1,16,17
 512 1099 512 1099 331 1280 c 24,18,19
 331 1280 331 1280 256 1280 c 25,20,-1
 256 0 l 25,21,-1
 0 0 l 25,22,-1
 0 1792 l 25,23,24
 0 1792 0 1792 181 1792 c 0,25,-1
 640 1333 l 1,0,1
EndSplineSet
Validated: 1
EndChar

StartChar: N
Encoding: 78 78 76
Width: 1536
VWidth: 2048
Flags: MW
LayerCount: 2
Back
Fore
SplineSet
256 1461 m 1,0,-1
 1024 693 l 1,1,2
 1024 693 1024 693 1024 1749 c 0,3,4
 1088 1792 1088 1792 1152 1792 c 0,5,6
 1152 1792 1152 1792 1280 1749 c 8,7,-1
 1280 0 l 1,8,-1
 1024 0 l 1,9,10
 1024 304 1024 304 1024 331 c 1,11,-1
 256 1099 l 1,12,13
 256 1043 256 1043 256 0 c 25,14,-1
 0 0 l 1,15,-1
 0 1749 l 0,16,17
 64 1792 64 1792 128 1792 c 0,18,19
 128 1792 128 1792 256 1749 c 8,20,21
 256 1749 256 1749 256 1461 c 1,0,-1
EndSplineSet
Validated: 1
EndChar

StartChar: O
Encoding: 79 79 77
Width: 1536
VWidth: 2048
Flags: MW
LayerCount: 2
Back
Fore
SplineSet
949 1536 m 0,0,1
 949 1536 949 1536 331 1536 c 1,2,3
 256 1536 256 1536 256 1461 c 1,4,5
 256 1461 256 1461 256 331 c 1,6,7
 256 256 256 256 331 256 c 0,8,9
 331 256 331 256 949 256 c 0,10,11
 1024 256 1024 256 1024 331 c 1,12,13
 1024 331 1024 331 1024 1280 c 1,14,15
 1024 1536 1024 1536 949 1536 c 0,0,1
1280 512 m 2,16,-1
 1280 331 l 1,17,18
 1280 0 1280 0 949 0 c 0,19,20
 331 0 331 0 331 0 c 0,21,22
 0 0 0 0 0 331 c 1,23,24
 0 331 0 331 0 512 c 1,25,26
 0 512 0 512 0 1280 c 1,27,-1
 0 1461 l 1,28,29
 0 1790 0 1790 331 1792 c 0,30,31
 331 1792 331 1792 949 1792 c 0,32,33
 1280 1792 1280 1792 1280 1461 c 1,34,35
 1280 657 1280 657 1280 512 c 2,16,-1
EndSplineSet
Validated: 1
EndChar

StartChar: P
Encoding: 80 80 78
Width: 1536
VWidth: 2048
Flags: MW
LayerCount: 2
Back
Fore
SplineSet
949 1792 m 0,0,1
 1280 1792 1280 1792 1280 1461 c 1,2,3
 1280 1188 1280 1188 1280 1099 c 1,4,5
 1280 768 1280 768 949 768 c 0,6,7
 949 768 949 768 256 768 c 1,8,-1
 256 0 l 25,9,-1
 0 0 l 25,10,-1
 0 1792 l 1,11,12
 23 1792 23 1792 949 1792 c 0,0,1
949 1024 m 0,13,14
 1024 1024 1024 1024 1024 1099 c 1,15,16
 1024 1408 1024 1408 1024 1461 c 0,17,18
 1024 1536 1024 1536 949 1536 c 1,19,20
 949 1536 949 1536 256 1536 c 1,21,-1
 256 1024 l 1,22,23
 256 1024 256 1024 949 1024 c 0,13,14
EndSplineSet
Validated: 1
EndChar

StartChar: Q
Encoding: 81 81 79
Width: 1536
VWidth: 2048
Flags: MW
LayerCount: 2
Back
Fore
SplineSet
512 587 m 25,0,-1
 512 768 l 24,1,-1
 693 768 l 25,2,-1
 1280 181 l 24,3,-1
 1280 0 l 25,4,-1
 1099 0 l 24,5,6
 1099 0 1099 0 512 587 c 25,0,-1
331 0 m 1,7,8
 0 0 0 0 0 331 c 1,9,10
 0 1062 0 1062 0 1461 c 0,11,12
 0 1792 0 1792 331 1792 c 1,13,-1
 949 1792 l 2,14,15
 1280 1792 1280 1792 1280 1461 c 1,16,-1
 1280 569 l 0,17,18
 1216 512 1216 512 1152 512 c 0,19,20
 1152 512 1152 512 1024 569 c 8,21,-1
 1024 1461 l 2,22,23
 1024 1536 1024 1536 949 1536 c 1,24,25
 949 1536 949 1536 331 1536 c 5,26,27
 256 1536 256 1536 256 1461 c 2,28,29
 256 1461 256 1461 256 331 c 2,30,31
 256 256 256 256 331 256 c 1,32,33
 331 256 331 256 730 256 c 0,34,35
 768 199 768 199 768 137 c 0,36,37
 767 73 767 73 730 0 c 0,38,39
 730 0 730 0 331 0 c 1,7,8
EndSplineSet
Validated: 1
EndChar

StartChar: R
Encoding: 82 82 80
Width: 1536
VWidth: 2048
Flags: MW
LayerCount: 2
Back
Fore
SplineSet
1024 1461 m 0,0,1
 1024 1536 1024 1536 949 1536 c 24,2,-1
 256 1536 l 24,3,-1
 256 1024 l 25,4,-1
 949 1024 l 0,5,6
 1024 1024 1024 1024 1024 1099 c 24,7,8
 1024 1099 1024 1099 1024 1461 c 0,0,1
693 768 m 25,9,10
 693 768 693 768 1280 181 c 24,11,12
 1280 181 1280 181 1280 0 c 25,13,14
 1280 0 1280 0 1099 0 c 0,15,-1
 331 768 l 24,16,17
 331 768 331 768 256 768 c 0,18,-1
 256 0 l 25,19,-1
 0 0 l 25,20,-1
 0 1792 l 1,21,-1
 949 1792 l 1,22,23
 1280 1792 1280 1792 1280 1461 c 8,24,25
 1280 1461 1280 1461 1280 1099 c 2,26,27
 1280 768 1280 768 949 768 c 8,28,29
 821 768 821 768 693 768 c 25,9,10
EndSplineSet
Validated: 1
EndChar

StartChar: S
Encoding: 83 83 81
Width: 1536
VWidth: 2048
Flags: MW
LayerCount: 2
Back
Fore
SplineSet
949 1792 m 0,0,1
 1280 1792 1280 1792 1280 1461 c 0,2,3
 1280 1337 1280 1337 1280 1337 c 0,4,5
 1223 1280 1223 1280 1152 1280 c 129,-1,6
 1081 1280 1081 1280 1024 1337 c 1,7,-1
 1024 1461 l 0,8,9
 1024 1536 1024 1536 949 1536 c 24,10,-1
 331 1536 l 0,11,12
 256 1536 256 1536 256 1461 c 24,13,14
 256 1218 256 1218 256 1099 c 0,15,16
 256 1024 256 1024 331 1024 c 24,17,-1
 949 1024 l 0,18,19
 1280 1024 1280 1024 1280 693 c 24,20,21
 1280 346 1280 346 1280 331 c 0,22,23
 1280 0 1280 0 949 0 c 24,24,-1
 331 0 l 0,25,26
 0 0 0 0 0 331 c 0,27,28
 0 455 0 455 0 455 c 0,29,30
 65 512 65 512 129 512 c 128,-1,31
 193 512 193 512 256 455 c 8,32,-1
 256 331 l 0,33,34
 256 256 256 256 331 256 c 24,35,-1
 949 256 l 0,36,37
 1024 256 1024 256 1024 331 c 24,38,39
 1024 550 1024 550 1024 693 c 0,40,41
 1024 768 1024 768 949 768 c 24,42,-1
 331 768 l 0,43,44
 0 768 0 768 0 1099 c 24,45,46
 0 1446 0 1446 0 1461 c 0,47,48
 0 1792 0 1792 331 1792 c 24,49,50
 640 1792 640 1792 949 1792 c 0,0,1
EndSplineSet
Validated: 1
EndChar

StartChar: T
Encoding: 84 84 82
Width: 1536
VWidth: 2048
Flags: MW
LayerCount: 2
Back
Fore
SplineSet
0 1792 m 29,0,-1
 1280 1792 l 25,1,-1
 1280 1536 l 25,2,-1
 768 1536 l 25,3,-1
 768 0 l 25,4,-1
 512 0 l 25,5,-1
 512 1536 l 25,6,-1
 0 1536 l 25,7,-1
 0 1792 l 29,0,-1
EndSplineSet
Validated: 1
EndChar

StartChar: U
Encoding: 85 85 83
Width: 1536
VWidth: 2048
Flags: MW
LayerCount: 2
Back
Fore
SplineSet
256 1792 m 25,0,-1
 256 331 l 0,1,2
 256 256 256 256 331 256 c 24,3,-1
 949 256 l 0,4,5
 1024 256 1024 256 1024 331 c 24,6,-1
 1024 1792 l 24,7,-1
 1280 1792 l 25,8,9
 1280 1792 1280 1792 1280 331 c 0,10,11
 1280 0 1280 0 949 0 c 24,12,-1
 331 0 l 0,13,14
 0 0 0 0 0 331 c 24,15,16
 0 331 0 331 0 1792 c 25,17,-1
 256 1792 l 25,0,-1
EndSplineSet
Validated: 1
EndChar

StartChar: V
Encoding: 86 86 84
Width: 1536
VWidth: 2048
Flags: MW
LayerCount: 2
Back
Fore
SplineSet
640 309 m 1,0,1
 640 309 640 309 1024 693 c 0,2,-1
 1024 1792 l 24,3,4
 1024 1792 1024 1792 1280 1792 c 25,5,-1
 1280 587 l 25,6,-1
 693 0 l 25,7,8
 693 0 693 0 587 0 c 24,9,10
 587 0 587 0 0 587 c 25,11,-1
 0 1792 l 25,12,-1
 256 1792 l 25,13,-1
 256 693 l 0,14,-1
 640 309 l 1,0,1
EndSplineSet
Validated: 1
EndChar

StartChar: W
Encoding: 87 87 85
Width: 1536
VWidth: 2048
Flags: MW
LayerCount: 2
Back
Fore
SplineSet
640 459 m 1,0,1
 181 0 181 0 181 0 c 0,2,3
 0 0 0 0 0 0 c 153,-1,4
 0 0 0 0 0 1792 c 25,5,-1
 256 1792 l 25,6,-1
 256 437 l 24,7,-1
 512 693 l 0,8,-1
 512 967 l 16,9,10
 575 1024 575 1024 639 1024 c 128,-1,11
 703 1024 703 1024 768 967 c 0,12,13
 768 967 768 967 768 693 c 0,14,-1
 1024 437 l 24,15,-1
 1024 1792 l 25,16,-1
 1280 1792 l 25,17,-1
 1280 0 l 25,18,19
 1099 0 1099 0 1099 0 c 0,20,21
 640 459 640 459 640 459 c 1,0,1
EndSplineSet
Validated: 1
EndChar

StartChar: X
Encoding: 88 88 86
Width: 1536
VWidth: 2048
Flags: MW
LayerCount: 2
Back
Fore
SplineSet
459 896 m 129,-1,1
 459 896 459 896 0 1355 c 1,2,-1
 0 1792 l 25,3,-1
 256 1792 l 25,4,-1
 256 1461 l 1,5,-1
 640 1077 l 1,6,7
 640 1077 640 1077 1024 1461 c 1,8,-1
 1024 1792 l 25,9,-1
 1280 1792 l 25,10,-1
 1280 1355 l 1,11,-1
 821 896 l 1,12,13
 1280 437 1280 437 1280 437 c 0,14,15
 1280 0 1280 0 1280 0 c 153,-1,16
 1280 0 1280 0 1024 0 c 1,17,-1
 1024 331 l 0,18,-1
 640 715 l 1,19,20
 640 715 640 715 256 331 c 1,21,-1
 256 0 l 25,22,-1
 0 0 l 25,23,24
 0 437 0 437 0 437 c 0,25,0
 459 896 459 896 459 896 c 129,-1,1
EndSplineSet
Validated: 1
EndChar

StartChar: Y
Encoding: 89 89 87
Width: 1536
VWidth: 2048
Flags: MW
LayerCount: 2
Back
Fore
SplineSet
639 1077 m 1,0,1
 639 1077 639 1077 1024 1461 c 1,2,-1
 1024 1792 l 1,3,-1
 1280 1792 l 25,4,-1
 1280 1355 l 25,5,-1
 768 843 l 25,6,-1
 768 0 l 25,7,-1
 512 0 l 25,8,-1
 512 843 l 25,9,-1
 0 1355 l 25,10,-1
 0 1792 l 25,11,-1
 256 1792 l 1,12,-1
 256 1461 l 1,13,-1
 639 1077 l 1,0,1
EndSplineSet
Validated: 1
EndChar

StartChar: Z
Encoding: 90 90 88
Width: 1536
VWidth: 2048
Flags: MW
LayerCount: 2
Back
Fore
SplineSet
0 1792 m 25,0,-1
 1280 1792 l 25,1,-1
 1280 1355 l 25,2,-1
 256 331 l 25,3,-1
 256 256 l 25,4,-1
 1280 256 l 25,5,-1
 1280 0 l 25,6,-1
 0 0 l 25,7,-1
 0 437 l 24,8,-1
 1024 1461 l 25,9,-1
 1024 1536 l 24,10,-1
 0 1536 l 24,11,12
 0 1536 0 1536 0 1792 c 25,0,-1
EndSplineSet
Validated: 1
EndChar

StartChar: bracketleft
Encoding: 91 91 89
Width: 1536
VWidth: 2048
Flags: MW
LayerCount: 2
Back
Fore
SplineSet
0 1792 m 24,0,-1
 1280 1792 l 24,1,-1
 1280 1536 l 25,2,-1
 512 1536 l 25,3,-1
 512 256 l 25,4,-1
 1280 256 l 25,5,-1
 1280 0 l 25,6,-1
 0 0 l 25,7,8
 0 0 0 0 0 1792 c 24,0,-1
EndSplineSet
Validated: 1
EndChar

StartChar: backslash
Encoding: 92 92 90
Width: 1536
VWidth: 2048
Flags: MW
LayerCount: 2
Back
Fore
SplineSet
181 1536 m 0,0,1
 181 1536 181 1536 1280 437 c 25,2,-1
 1280 256 l 1,3,4
 1280 256 1280 256 1099 256 c 0,5,6
 1099 256 1099 256 0 1355 c 25,7,8
 0 1355 0 1355 0 1536 c 1,9,10
 0 1536 0 1536 181 1536 c 0,0,1
EndSplineSet
Validated: 1
EndChar

StartChar: bracketright
Encoding: 93 93 91
Width: 1536
VWidth: 2048
Flags: MW
LayerCount: 2
Back
Fore
SplineSet
0 1792 m 24,0,-1
 1280 1792 l 24,1,-1
 1280 0 l 25,2,-1
 0 0 l 25,3,-1
 0 256 l 25,4,-1
 768 256 l 25,5,-1
 768 1536 l 25,6,-1
 0 1536 l 25,7,8
 0 1536 0 1536 0 1792 c 24,0,-1
EndSplineSet
Validated: 1
EndChar

StartChar: asciicircum
Encoding: 94 94 92
Width: 1536
VWidth: 2048
Flags: MW
LayerCount: 2
Back
Fore
SplineSet
640 971 m 1,0,1
 640 971 640 971 181 512 c 0,2,3
 181 512 181 512 0 512 c 25,4,5
 0 512 0 512 0 693 c 24,6,7
 0 693 0 693 587 1280 c 24,8,9
 587 1280 587 1280 693 1280 c 25,10,11
 693 1280 693 1280 1280 693 c 24,12,13
 1280 693 1280 693 1280 512 c 25,14,15
 1280 512 1280 512 1099 512 c 0,16,-1
 640 971 l 1,0,1
EndSplineSet
Validated: 1
EndChar

StartChar: underscore
Encoding: 95 95 93
Width: 1536
VWidth: 2048
Flags: MW
LayerCount: 2
Back
Fore
SplineSet
0 256 m 29,0,-1
 1280 256 l 25,1,-1
 1280 0 l 25,2,-1
 0 0 l 25,3,-1
 0 256 l 29,0,-1
EndSplineSet
Validated: 1
EndChar

StartChar: grave
Encoding: 96 96 94
Width: 1536
VWidth: 2048
Flags: MW
LayerCount: 2
Back
Fore
SplineSet
437 1792 m 24,0,1
 437 1792 437 1792 1024 1205 c 24,2,3
 1024 1205 1024 1205 1024 1024 c 1,4,-1
 843 1024 l 25,5,-1
 256 1611 l 25,6,-1
 256 1792 l 25,7,8
 256 1792 256 1792 437 1792 c 24,0,1
EndSplineSet
Validated: 1
EndChar

StartChar: a
Encoding: 97 97 95
Width: 1536
VWidth: 2048
Flags: MW
LayerCount: 2
Back
Fore
SplineSet
768 768 m 1,0,1
 768 768 768 768 569 768 c 1,2,3
 512 768 512 768 512 711 c 1,4,5
 512 711 512 711 512 569 c 1,6,7
 512 512 512 512 569 512 c 1,8,9
 569 512 569 512 768 512 c 1,10,11
 768 512 768 512 768 768 c 1,0,1
569 256 m 2,12,13
 256 256 256 256 256 569 c 0,14,15
 256 640 256 640 256 711 c 0,16,17
 256 1024 256 1024 569 1024 c 2,18,19
 569 1024 569 1024 768 1024 c 1,20,21
 768 1024 768 1024 768 1223 c 1,22,23
 768 1280 768 1280 711 1280 c 1,24,25
 711 1280 711 1280 313 1280 c 0,26,27
 256 1337 256 1337 256 1408 c 0,28,29
 256 1465 256 1465 313 1536 c 0,30,31
 313 1536 313 1536 711 1536 c 0,32,33
 1024 1536 1024 1536 1024 1223 c 0,34,35
 1024 1202 1024 1202 1024 512 c 1,36,-1
 1223 512 l 0,37,38
 1280 446 1280 446 1280 382 c 128,-1,39
 1280 318 1280 318 1223 256 c 0,40,-1
 569 256 l 2,12,13
EndSplineSet
Validated: 1
EndChar

StartChar: b
Encoding: 98 98 96
Width: 1536
VWidth: 2048
Flags: MW
LayerCount: 2
Back
Fore
SplineSet
967 1280 m 0,0,1
 1280 1280 1280 1280 1280 967 c 0,2,3
 1280 868 1280 868 1280 768 c 1,4,5
 1280 256 1280 256 967 256 c 0,6,7
 967 256 967 256 57 256 c 0,8,9
 0 256 0 256 0 382 c 0,10,11
 0 455 0 455 57 512 c 0,12,-1
 256 512 l 1,13,-1
 256 1734 l 0,14,15
 322 1791 322 1791 386 1791 c 128,-1,16
 450 1791 450 1791 512 1734 c 8,17,-1
 512 1280 l 1,18,-1
 967 1280 l 0,0,1
967 512 m 0,19,20
 1024 512 1024 512 1024 565 c 0,21,22
 1024 567 1024 567 1024 569 c 1,23,24
 1024 896 1024 896 1024 967 c 0,25,26
 1024 1024 1024 1024 967 1024 c 1,27,28
 967 1024 967 1024 512 1024 c 1,29,-1
 512 512 l 1,30,31
 740 512 740 512 967 512 c 0,19,20
EndSplineSet
Validated: 1
EndChar

StartChar: c
Encoding: 99 99 97
Width: 1536
VWidth: 2048
Flags: MW
LayerCount: 2
Back
Fore
SplineSet
256 1223 m 1,0,1
 256 1536 256 1536 569 1536 c 1,2,3
 569 1536 569 1536 1223 1536 c 0,4,5
 1280 1467 1280 1467 1280 1403 c 128,-1,6
 1280 1339 1280 1339 1223 1280 c 0,7,-1
 569 1280 l 1,8,9
 512 1280 512 1280 512 1223 c 1,10,11
 512 1223 512 1223 512 569 c 1,12,13
 512 512 512 512 569 512 c 1,14,15
 569 512 569 512 1223 512 c 0,16,17
 1278 446 1278 446 1278 382 c 128,-1,18
 1278 318 1278 318 1223 256 c 0,19,-1
 569 256 l 0,20,21
 256 256 256 256 256 569 c 1,22,23
 256 896 256 896 256 1223 c 1,0,1
EndSplineSet
Validated: 1
EndChar

StartChar: d
Encoding: 100 100 98
Width: 1536
VWidth: 2048
Flags: MW
LayerCount: 2
Back
Fore
SplineSet
313 256 m 0,0,1
 0 256 0 256 0 512 c 0,2,3
 0 512 0 512 0 967 c 1,4,5
 0 1280 0 1280 313 1280 c 0,6,7
 540 1280 540 1280 768 1280 c 1,8,-1
 768 1734 l 0,9,10
 824 1792 824 1792 895.5 1792 c 128,-1,11
 967 1792 967 1792 1024 1734 c 0,12,-1
 1024 512 l 1,13,-1
 1223 512 l 0,14,15
 1280 455 1280 455 1280 387 c 0,16,17
 1280 313 1280 313 1223 255 c 0,18,19
 1223 255 1223 255 313 256 c 0,0,1
313 1024 m 1,20,21
 255 1024 255 1024 255 967 c 1,22,23
 256 569 256 569 256 569 c 0,24,25
 256 512 256 512 313 512 c 24,26,27
 313 512 313 512 768 512 c 0,28,29
 768 512 768 512 768 1024 c 1,30,-1
 313 1024 l 1,20,21
EndSplineSet
Validated: 1
EndChar

StartChar: e
Encoding: 101 101 99
Width: 1536
VWidth: 2048
Flags: MW
LayerCount: 2
Back
Fore
SplineSet
949 1024 m 0,0,1
 1024 1024 1024 1024 1024 1099 c 2,2,3
 1024 1099 1024 1099 1024 1205 c 1,4,5
 1024 1280 1024 1280 949 1280 c 1,6,7
 768 1280 768 1280 587 1280 c 0,8,9
 512 1280 512 1280 512 1205 c 1,10,11
 512 1143 512 1143 512 1081 c 0,12,13
 512 1024 512 1024 569 1024 c 1,14,15
 759 1024 759 1024 949 1024 c 0,0,1
256 1205 m 0,16,17
 256 1536 256 1536 587 1536 c 1,18,19
 587 1536 587 1536 949 1536 c 1,20,21
 1280 1536 1280 1536 1280 1205 c 0,22,23
 1280 1205 1280 1205 1280 1099 c 0,24,25
 1280 768 1280 768 949 768 c 0,26,-1
 512 768 l 1,27,28
 512 595 512 595 512 587 c 0,29,30
 512 512 512 512 587 512 c 1,31,32
 967 512 967 512 967 512 c 0,33,34
 1024 512 1024 512 1024 384 c 128,-1,35
 1024 256 1024 256 967 256 c 0,36,-1
 587 256 l 0,37,38
 256 256 256 256 256 587 c 1,39,40
 256 896 256 896 256 1205 c 0,16,17
EndSplineSet
Validated: 1
EndChar

StartChar: f
Encoding: 102 102 100
Width: 1536
VWidth: 2048
Flags: MW
LayerCount: 2
Back
Fore
SplineSet
512 1465 m 0,0,1
 512 1792 512 1792 824 1792 c 0,2,3
 895 1792 895 1792 967 1792 c 0,4,5
 1280 1792 1280 1792 1280 1465 c 0,6,7
 1280 1465 1280 1465 1280 1280 c 1,8,9
 1280 1280 1280 1280 1024 1280 c 1,10,11
 1024 1408 1024 1408 1024 1465 c 0,12,13
 1024 1536 1024 1536 967 1536 c 0,14,15
 896 1536 896 1536 824 1536 c 0,16,17
 768 1536 768 1536 768 1465 c 0,18,19
 768 1024 768 1024 768 1024 c 1,20,-1
 967 1024 l 1,21,22
 1024 960 1024 960 1024 896 c 128,-1,23
 1024 832 1024 832 967 768 c 0,24,-1
 768 768 l 0,25,-1
 768 256 l 25,26,-1
 512 256 l 25,27,-1
 512 768 l 0,28,-1
 313 768 l 0,29,30
 256 832 256 832 256 896 c 128,-1,31
 256 960 256 960 313 1024 c 1,32,-1
 512 1024 l 1,33,-1
 512 1465 l 0,0,1
EndSplineSet
Validated: 1
EndChar

StartChar: g
Encoding: 103 103 101
Width: 1536
VWidth: 2048
Flags: MW
LayerCount: 2
Back
Fore
SplineSet
1024 1223 m 1,0,1
 1024 1280 1024 1280 967 1280 c 1,2,3
 967 1280 967 1280 569 1280 c 0,4,5
 512 1280 512 1280 512 1223 c 1,6,7
 512 1223 512 1223 512 825 c 1,8,9
 512 768 512 768 569 768 c 1,10,11
 967 768 967 768 967 768 c 0,12,13
 1024 768 1024 768 1024 825 c 1,14,15
 1024 825 1024 825 1024 1223 c 1,0,1
569 512 m 2,16,17
 256 512 256 512 256 825 c 0,18,19
 256 825 256 825 256 1223 c 0,20,21
 256 1536 256 1536 569 1536 c 0,22,23
 768 1536 768 1536 967 1536 c 1,24,25
 1280 1536 1280 1536 1280 1223 c 0,26,27
 1280 612 1280 612 1280 313 c 0,28,29
 1280 0 1280 0 967 0 c 1,30,31
 967 0 967 0 512 0 c 1,32,-1
 512 256 l 1,33,-1
 967 256 l 1,34,35
 1024 256 1024 256 1024 313 c 1,36,37
 1024 413 1024 413 1024 512 c 1,38,-1
 569 512 l 2,16,17
EndSplineSet
Validated: 1
EndChar

StartChar: h
Encoding: 104 104 102
Width: 1536
VWidth: 2048
Flags: MW
LayerCount: 2
Back
Fore
SplineSet
967 1280 m 17,0,1
 1280 1280 1280 1280 1280 967 c 0,2,3
 1280 836 1280 836 1280 256 c 25,4,-1
 1024 256 l 1,5,-1
 1024 967 l 1,6,7
 1024 1024 1024 1024 967 1024 c 1,8,9
 967 1024 967 1024 512 1024 c 1,10,-1
 512 256 l 25,11,-1
 256 256 l 1,12,-1
 256 1734 l 0,13,14
 326 1792 326 1792 390 1792 c 128,-1,15
 454 1792 454 1792 512 1734 c 8,16,-1
 512 1280 l 1,17,-1
 967 1280 l 17,0,1
EndSplineSet
Validated: 1
EndChar

StartChar: i
Encoding: 105 105 103
Width: 1536
VWidth: 2048
Flags: MW
LayerCount: 2
Back
Fore
SplineSet
512 1223 m 0,0,1
 569 1280 569 1280 639 1280 c 1,2,3
 711 1280 711 1280 768 1223 c 1,4,-1
 768 569 l 0,5,6
 768 512 768 512 824 512 c 24,7,-1
 1024 512 l 1,8,-1
 1024 256 l 25,9,-1
 256 256 l 25,10,-1
 256 512 l 1,11,-1
 454 512 l 0,12,13
 512 512 512 512 512 569 c 16,14,15
 512 569 512 569 512 1223 c 0,0,1
512 1792 m 24,16,-1
 768 1792 l 24,17,-1
 768 1536 l 25,18,-1
 512 1536 l 25,19,20
 512 1536 512 1536 512 1792 c 24,16,-1
EndSplineSet
Validated: 1
EndChar

StartChar: j
Encoding: 106 106 104
Width: 1536
VWidth: 2048
Flags: MW
LayerCount: 2
Back
Fore
SplineSet
768 1792 m 25,0,-1
 1024 1792 l 25,1,-1
 1024 1536 l 25,2,-1
 768 1536 l 25,3,-1
 768 1792 l 25,0,-1
1024 313 m 0,4,5
 1024 2 1024 2 711 0 c 0,6,7
 711 0 711 0 569 0 c 0,8,9
 256 0 256 0 256 313 c 0,10,11
 256 313 256 313 256 455 c 0,12,13
 313 512 313 512 378 512 c 0,14,15
 454 512 454 512 512 455 c 0,16,-1
 512 302 l 0,17,18
 512 256 512 256 569 256 c 0,19,20
 640 256 640 256 711 256 c 0,21,22
 768 256 768 256 768 302 c 0,23,24
 768 302 768 302 768 1223 c 0,25,26
 830 1280 830 1280 893 1280 c 0,27,28
 958 1280 958 1280 1024 1223 c 0,29,30
 1024 1223 1024 1223 1024 313 c 0,4,5
EndSplineSet
Validated: 1
EndChar

StartChar: k
Encoding: 107 107 105
Width: 1536
VWidth: 2048
Flags: MW
LayerCount: 2
Back
Fore
SplineSet
569 1024 m 17,0,1
 569 1024 569 1024 1081 1536 c 1,2,-1
 1280 1536 l 1,3,-1
 1280 1337 l 1,4,-1
 839 896 l 1,5,6
 839 896 839 896 1280 455 c 1,7,-1
 1280 256 l 1,8,-1
 1081 256 l 1,9,-1
 569 768 l 1,10,11
 569 768 569 768 512 768 c 25,12,-1
 512 256 l 25,13,-1
 256 256 l 25,14,-1
 256 1792 l 25,15,-1
 512 1792 l 25,16,-1
 512 1024 l 25,17,-1
 569 1024 l 17,0,1
EndSplineSet
Validated: 1
EndChar

StartChar: l
Encoding: 108 108 106
Width: 1536
VWidth: 2048
Flags: MW
LayerCount: 2
Back
Fore
SplineSet
256 1792 m 24,0,-1
 768 1792 l 24,1,-1
 768 512 l 25,2,-1
 1024 512 l 25,3,-1
 1024 256 l 25,4,-1
 256 256 l 25,5,-1
 256 512 l 25,6,-1
 512 512 l 25,7,-1
 512 1536 l 25,8,-1
 256 1536 l 25,9,10
 256 1536 256 1536 256 1792 c 24,0,-1
EndSplineSet
Validated: 1
EndChar

StartChar: m
Encoding: 109 109 107
Width: 1536
VWidth: 2048
Flags: MW
LayerCount: 2
Back
Fore
SplineSet
454 1536 m 2,0,1
 639 1536 639 1536 639 1280 c 1,2,3
 639 1536 639 1536 824 1536 c 0,4,5
 824 1536 824 1536 967 1536 c 0,6,7
 1280 1536 1280 1536 1280 1223 c 1,8,9
 1280 740 1280 740 1280 256 c 1,10,11
 1280 256 1280 256 1024 256 c 1,12,-1
 1024 1223 l 2,13,14
 1024 1280 1024 1280 967 1280 c 1,15,16
 967 1280 967 1280 824 1280 c 0,17,18
 768 1280 768 1280 768 1223 c 0,19,20
 768 1223 768 1223 768 256 c 1,21,-1
 512 256 l 1,22,-1
 512 1223 l 2,23,24
 512 1280 512 1280 454 1280 c 0,25,26
 454 1280 454 1280 313 1280 c 0,27,28
 256 1280 256 1280 256 1223 c 2,29,-1
 256 256 l 1,30,-1
 0 256 l 25,31,-1
 0 1536 l 1,32,-1
 454 1536 l 2,0,1
EndSplineSet
Validated: 1
EndChar

StartChar: n
Encoding: 110 110 108
Width: 1536
VWidth: 2048
Flags: MW
LayerCount: 2
Back
Fore
SplineSet
967 1536 m 17,0,1
 1280 1536 1280 1536 1280 1223 c 1,2,3
 1280 683 1280 683 1280 256 c 25,4,-1
 1024 256 l 1,5,-1
 1024 1223 l 1,6,7
 1024 1280 1024 1280 967 1280 c 1,8,9
 967 1280 967 1280 512 1280 c 1,10,-1
 512 256 l 25,11,-1
 256 256 l 25,12,-1
 256 1536 l 1,13,-1
 967 1536 l 17,0,1
EndSplineSet
Validated: 1
EndChar

StartChar: o
Encoding: 111 111 109
Width: 1536
VWidth: 2048
Flags: MW
LayerCount: 2
Back
Fore
SplineSet
1024 1223 m 1,0,1
 1024 1280 1024 1280 967 1280 c 1,2,3
 953 1280 953 1280 569 1280 c 0,4,5
 512 1280 512 1280 512 1223 c 1,6,7
 512 1223 512 1223 512 569 c 1,8,9
 512 512 512 512 569 512 c 1,10,11
 569 512 569 512 967 512 c 0,12,13
 1024 512 1024 512 1024 569 c 1,14,15
 1024 569 1024 569 1024 1223 c 1,0,1
256 1223 m 0,16,17
 256 1536 256 1536 583 1536 c 1,18,19
 775 1536 775 1536 967 1536 c 1,20,21
 1280 1536 1280 1536 1280 1223 c 0,22,23
 1280 691 1280 691 1280 569 c 0,24,25
 1280 256 1280 256 967 256 c 1,26,27
 768 256 768 256 569 256 c 1,28,29
 256 256 256 256 256 569 c 0,30,31
 256 1056 256 1056 256 1223 c 0,16,17
EndSplineSet
Validated: 1
EndChar

StartChar: p
Encoding: 112 112 110
Width: 1536
VWidth: 2048
Flags: MW
LayerCount: 2
Back
Fore
SplineSet
967 768 m 1,0,1
 1024 768 1024 768 1024 825 c 1,2,3
 1024 825 1024 825 1024 1223 c 1,4,5
 1024 1280 1024 1280 967 1280 c 1,6,7
 967 1280 967 1280 512 1280 c 5,8,9
 512 1280 512 1280 512 768 c 4,10,11
 512 768 512 768 967 768 c 1,0,1
967 1536 m 17,12,13
 1280 1536 1280 1536 1280 1223 c 0,14,15
 1280 867 1280 867 1280 825 c 0,16,17
 1280 512 1280 512 967 512 c 9,18,19
 967 512 967 512 512 512 c 1,20,-1
 512 0 l 25,21,-1
 256 0 l 25,22,-1
 256 1536 l 1,23,-1
 967 1536 l 17,12,13
EndSplineSet
Validated: 1
EndChar

StartChar: q
Encoding: 113 113 111
Width: 1536
VWidth: 2048
Flags: MW
LayerCount: 2
Back
Fore
SplineSet
313 1280 m 1,0,1
 256 1280 256 1280 256 1223 c 1,2,3
 256 1223 256 1223 256 825 c 1,4,5
 256 768 256 768 313 768 c 1,6,7
 313 768 313 768 768 768 c 1,8,-1
 768 1280 l 1,9,-1
 313 1280 l 1,0,1
313 512 m 1,10,11
 0 512 0 512 0 825 c 0,12,13
 0 1181 0 1181 0 1223 c 0,14,15
 0 1536 0 1536 313 1536 c 1,16,17
 512 1536 512 1536 722 1536 c 0,18,-1
 1024 1536 l 25,19,-1
 1024 256 l 1,20,-1
 1223 256 l 0,21,22
 1279 190 1279 190 1279 126 c 128,-1,23
 1279 62 1279 62 1223 0 c 8,24,-1
 768 0 l 1,25,-1
 768 512 l 1,26,-1
 313 512 l 1,10,11
EndSplineSet
Validated: 1
EndChar

StartChar: r
Encoding: 114 114 112
Width: 1536
VWidth: 2048
Flags: MW
LayerCount: 2
Back
Fore
SplineSet
512 1280 m 1,0,1
 512 1536 512 1536 824 1536 c 1,2,3
 824 1536 824 1536 1280 1536 c 1,4,-1
 1280 1280 l 1,5,-1
 824 1280 l 1,6,7
 512 1280 512 1280 512 1024 c 1,8,9
 512 1024 512 1024 512 256 c 1,10,-1
 256 256 l 25,11,-1
 256 1536 l 25,12,-1
 512 1536 l 25,13,-1
 512 1280 l 1,0,1
EndSplineSet
Validated: 1
EndChar

StartChar: s
Encoding: 115 115 113
Width: 1536
VWidth: 2048
Flags: MW
LayerCount: 2
Back
Fore
SplineSet
1280 711 m 0,0,1
 1280 710 1280 710 1280 569 c 0,2,3
 1280 256 1280 256 967 256 c 0,4,-1
 313 256 l 0,5,6
 256 321 256 321 256 385 c 128,-1,7
 256 449 256 449 313 512 c 8,8,-1
 967 512 l 0,9,10
 1024 512 1024 512 1024 569 c 16,11,12
 1024 569 1024 569 1024 711 c 0,13,14
 1024 768 1024 768 967 768 c 0,15,-1
 569 768 l 0,16,17
 256 768 256 768 256 1081 c 0,18,19
 256 1081 256 1081 256 1223 c 0,20,21
 256 1536 256 1536 569 1536 c 1,22,23
 569 1536 569 1536 1223 1536 c 0,24,25
 1280 1467 1280 1467 1280 1403 c 128,-1,26
 1280 1339 1280 1339 1223 1280 c 1,27,-1
 569 1280 l 0,28,29
 512 1280 512 1280 512 1223 c 0,30,31
 512 1223 512 1223 512 1081 c 0,32,33
 512 1024 512 1024 569 1024 c 24,34,-1
 967 1024 l 0,35,36
 1280 1024 1280 1024 1280 711 c 0,0,1
EndSplineSet
Validated: 1
EndChar

StartChar: t
Encoding: 116 116 114
Width: 1536
VWidth: 2048
Flags: MW
LayerCount: 2
Back
Fore
SplineSet
768 569 m 1,0,1
 768 512 768 512 824 512 c 0,2,3
 824 512 824 512 1024 512 c 1,4,5
 1024 512 1024 512 1024 256 c 1,6,-1
 824 256 l 17,7,8
 512 256 512 256 512 569 c 1,9,10
 512 1232 512 1232 512 1280 c 1,11,-1
 313 1280 l 0,12,13
 256 1342 256 1342 256 1406 c 128,-1,14
 256 1470 256 1470 313 1536 c 0,15,-1
 512 1536 l 1,16,-1
 512 1734 l 0,17,18
 576 1792 576 1792 640 1792 c 128,-1,19
 704 1792 704 1792 768 1734 c 8,20,-1
 768 1536 l 1,21,-1
 967 1536 l 0,22,23
 1024 1478 1024 1478 1024 1414 c 128,-1,24
 1024 1350 1024 1350 967 1280 c 0,25,-1
 768 1280 l 1,26,-1
 768 569 l 1,0,1
EndSplineSet
Validated: 1
EndChar

StartChar: u
Encoding: 117 117 115
Width: 1536
VWidth: 2048
Flags: MW
LayerCount: 2
Back
Fore
SplineSet
512 569 m 1,0,1
 512 512 512 512 569 512 c 1,2,3
 569 512 569 512 1024 512 c 1,4,-1
 1024 1466 l 0,5,6
 1090 1535 1090 1535 1154 1535 c 128,-1,7
 1218 1535 1218 1535 1279 1465 c 8,8,-1
 1280 256 l 1,9,-1
 569 256 l 17,10,11
 256 256 256 256 256 569 c 1,12,13
 256 1465 256 1465 256 1465 c 0,14,15
 313 1536 313 1536 382 1536 c 0,16,17
 454 1536 454 1536 512 1465 c 0,18,-1
 512 569 l 1,0,1
EndSplineSet
Validated: 1
EndChar

StartChar: v
Encoding: 118 118 116
Width: 1536
VWidth: 2048
Flags: MW
LayerCount: 2
Back
Fore
SplineSet
640 627 m 1,0,1
 640 627 640 627 1024 1461 c 1,2,3
 1024 1536 1024 1536 1152 1536.00042725 c 128,-1,4
 1280 1536 1280 1536 1280 1461 c 0,5,6
 1280 1461 1280 1461 1280 1355 c 1,7,-1
 768 256 l 1,8,-1
 512 256 l 0,9,10
 512 256 512 256 0 1355 c 1,11,12
 0 1461 0 1461 0 1465 c 0,13,14
 0 1536 0 1536 120 1536 c 0,15,16
 256 1536 256 1536 256 1461 c 1,17,-1
 640 627 l 1,0,1
EndSplineSet
Validated: 1
EndChar

StartChar: w
Encoding: 119 119 117
Width: 1536
VWidth: 2048
Flags: MW
LayerCount: 2
Back
Fore
SplineSet
0 1465 m 0,0,1
 71 1536 71 1536 130 1536 c 0,2,3
 194 1536 194 1536 256 1465 c 8,4,-1
 256 569 l 0,5,6
 256 512 256 512 313 512 c 24,7,8
 401 512 401 512 454 512 c 0,9,10
 512 512 512 512 512 569 c 1,11,-1
 512 967 l 0,12,13
 576 1024 576 1024 640 1024 c 128,-1,14
 704 1024 704 1024 768 967 c 8,15,-1
 768 569 l 1,16,17
 768 512 768 512 824 512 c 24,18,19
 918 512 918 512 967 512 c 0,20,21
 1024 512 1024 512 1024 569 c 25,22,-1
 1024 1465 l 0,23,24
 1087 1536 1087 1536 1151 1536 c 128,-1,25
 1215 1536 1215 1536 1280 1465 c 1,26,27
 1280 1465 1280 1465 1280 569 c 17,28,29
 1280 256 1280 256 967 256 c 18,30,31
 967 256 967 256 823 256 c 0,32,33
 639 256 639 256 639 512 c 1,34,35
 639 256 639 256 454 256 c 1,36,37
 454 256 454 256 313 256 c 0,38,39
 1 258 1 258 0 569 c 16,40,41
 -2 1016 -2 1016 -2 1240 c 0,42,43
 -2 1463 -2 1463 0 1465 c 0,0,1
EndSplineSet
Validated: 1
EndChar

StartChar: x
Encoding: 120 120 118
Width: 1536
VWidth: 2048
Flags: MW
LayerCount: 2
Back
Fore
SplineSet
639 714 m 129,-1,1
 639 714 639 714 181 256 c 1,2,3
 0 256 0 256 0 437 c 1,4,5
 457 896 457 896 457 896 c 129,-1,6
 457 896 457 896 0 1355 c 1,7,8
 0 1536 0 1536 181 1536 c 1,9,10
 640 1077 640 1077 640 1077 c 129,-1,11
 640 1077 640 1077 1099 1536 c 1,12,13
 1280 1536 1280 1536 1280 1355 c 1,14,15
 822 897 822 897 822 897 c 129,-1,16
 822 897 822 897 1280 437 c 1,17,18
 1280 256 1280 256 1099 256 c 1,19,0
 639 714 639 714 639 714 c 129,-1,1
EndSplineSet
Validated: 1
EndChar

StartChar: y
Encoding: 121 121 119
Width: 1536
VWidth: 2048
Flags: MW
LayerCount: 2
Back
Fore
SplineSet
512 825 m 1,0,1
 512 768 512 768 569 768 c 1,2,3
 569 768 569 768 1024 768 c 1,4,-1
 1024 1465 l 0,5,6
 1024 1536 1024 1536 1152 1536 c 129,-1,7
 1280 1536 1280 1536 1280 1465 c 1,8,-1
 1280 313 l 0,9,10
 1280 0 1280 0 967 0 c 1,11,-1
 569 0 l 0,12,13
 512 63 512 63 512 127 c 128,-1,14
 512 191 512 191 569 256 c 8,15,-1
 967 256 l 1,16,17
 1024 256 1024 256 1024 313 c 1,18,19
 1024 413 1024 413 1024 512 c 0,20,-1
 569 512 l 1,21,22
 256 512 256 512 256 825 c 1,23,24
 256 1180 256 1180 256 1465 c 0,25,26
 256 1536 256 1536 387 1536 c 0,27,28
 512 1536 512 1536 512 1465 c 0,29,-1
 512 825 l 1,0,1
EndSplineSet
Validated: 1
EndChar

StartChar: z
Encoding: 122 122 120
Width: 1536
VWidth: 2048
Flags: MW
LayerCount: 2
Back
Fore
SplineSet
1206 1280 m 0,0,1
 1206 1280 1206 1280 512 587 c 25,2,3
 512 586 512 586 512 569 c 0,4,5
 512 512 512 512 569 512 c 24,6,-1
 1223 512 l 0,7,8
 1280 512 1280 512 1280 385 c 0,9,10
 1280 256 1280 256 1223 256 c 0,11,12
 640 256 640 256 57 256 c 0,13,14
 0 256 0 256 0 373 c 0,15,16
 0 512 0 512 57 512 c 0,17,-1
 75 512 l 24,18,19
 75 512 75 512 768 1205 c 8,20,21
 768 1205 768 1205 768 1223 c 0,22,23
 768 1280 768 1280 711 1280 c 24,24,-1
 57 1280 l 0,25,26
 0 1344 0 1344 0 1408 c 128,-1,27
 0 1472 0 1472 57 1536 c 0,28,29
 57 1536 57 1536 1205 1536 c 0,30,31
 1206 1535 1206 1535 1206 1280 c 0,0,1
EndSplineSet
Validated: 1
EndChar

StartChar: braceleft
Encoding: 123 123 121
Width: 1280
VWidth: 2048
Flags: MW
LayerCount: 2
Back
Fore
SplineSet
512 1465 m 1,0,1
 512 1792 512 1792 825 1792 c 1,2,3
 825 1792 825 1792 1024 1792 c 25,4,-1
 1024 1536 l 1,5,-1
 824 1536 l 1,6,7
 768 1536 768 1536 768 1465 c 1,8,9
 768 1454 768 1454 768 1081 c 0,10,11
 768 896 768 896 666 896 c 1,12,13
 768 896 768 896 768 711 c 0,14,15
 768 711 768 711 768 313 c 1,16,17
 768 256 768 256 824 256 c 1,18,19
 1024 256 1024 256 1024 256 c 1,20,-1
 1024 0 l 25,21,-1
 825 0 l 0,22,23
 512 0 512 0 512 313 c 1,24,25
 512 313 512 313 512 711 c 1,26,27
 512 768 512 768 454 768 c 0,28,29
 454 768 454 768 256 768 c 0,30,31
 256 768 256 768 256 1024 c 1,32,33
 454 1024 454 1024 454 1024 c 1,34,35
 512 1024 512 1024 512 1081 c 1,36,37
 512 1273 512 1273 512 1465 c 1,0,1
EndSplineSet
Validated: 1
EndChar

StartChar: bar
Encoding: 124 124 122
Width: 1024
VWidth: 2048
Flags: MW
LayerCount: 2
Back
Fore
SplineSet
512 768 m 24,0,-1
 768 768 l 24,1,-1
 768 0 l 25,2,-1
 512 0 l 25,3,4
 512 0 512 0 512 768 c 24,0,-1
512 1792 m 25,5,-1
 768 1792 l 25,6,-1
 768 1024 l 25,7,-1
 512 1024 l 25,8,-1
 512 1792 l 25,5,-1
EndSplineSet
Validated: 1
EndChar

StartChar: braceright
Encoding: 125 125 123
Width: 1280
VWidth: 2048
Flags: MW
LayerCount: 2
Back
Fore
SplineSet
768 1465 m 1,0,1
 768 1081 768 1081 768 1081 c 1,2,3
 768 1024 768 1024 824 1024 c 1,4,5
 924 1024 924 1024 1024 1024 c 1,6,7
 1024 768 1024 768 1024 768 c 1,8,9
 824 768 824 768 824 768 c 1,10,11
 768 768 768 768 768 711 c 1,12,13
 768 313 768 313 768 313 c 1,14,15
 768 0 768 0 455 0 c 0,16,17
 455 0 455 0 256 0 c 25,18,-1
 256 256 l 1,19,20
 355 256 355 256 454 256 c 1,21,22
 512 256 512 256 512 313 c 1,23,24
 512 711 512 711 512 711 c 0,25,26
 512 896 512 896 614 896 c 1,27,28
 512 896 512 896 512 1081 c 0,29,30
 512 1460 512 1460 512 1465 c 1,31,32
 512 1536 512 1536 454 1536 c 1,33,34
 454 1536 454 1536 256 1536 c 1,35,-1
 256 1792 l 25,36,-1
 455 1792 l 1,37,38
 768 1792 768 1792 768 1465 c 1,0,1
EndSplineSet
Validated: 1
EndChar

StartChar: asciitilde
Encoding: 126 126 124
Width: 1536
VWidth: 2048
Flags: MW
LayerCount: 2
Back
Fore
SplineSet
1280 1099 m 0,0,1
 1280 768 1280 768 949 768 c 24,2,-1
 331 768 l 0,3,4
 256 768 256 768 256 693 c 24,5,-1
 256 512 l 25,6,-1
 0 512 l 25,7,8
 0 514 0 514 0 693 c 0,9,10
 0 1024 0 1024 331 1024 c 24,11,-1
 949 1024 l 0,12,13
 1024 1024 1024 1024 1024 1099 c 24,14,-1
 1024 1280 l 25,15,-1
 1280 1280 l 25,16,17
 1280 1280 1280 1280 1280 1099 c 0,0,1
EndSplineSet
Validated: 1
EndChar

StartChar: uni007F
Encoding: 127 127 125
Width: 1536
VWidth: 2048
Flags: MW
LayerCount: 2
Back
Fore
SplineSet
0 1280 m 29,0,-1
 1280 1280 l 25,1,-1
 1280 0 l 25,2,-1
 0 0 l 25,3,-1
 0 1280 l 29,0,-1
EndSplineSet
Validated: 1
EndChar

StartChar: uni0080
Encoding: 128 128 126
Width: 1536
VWidth: 2048
Flags: MW
LayerCount: 2
Back
Fore
SplineSet
949 1792 m 0,0,1
 1280 1792 1280 1792 1280 1461 c 0,2,3
 1280 1461 1280 1461 1280 1280 c 1,4,5
 1280 1280 1280 1280 1024 1280 c 0,6,-1
 1024 1461 l 0,7,8
 1024 1536 1024 1536 949 1536 c 0,9,-1
 331 1536 l 0,10,11
 256 1536 256 1536 256 1461 c 0,12,13
 256 1461 256 1461 256 843 c 0,14,15
 256 768 256 768 331 768 c 0,16,-1
 949 768 l 2,17,18
 1024 768 1024 768 1024 843 c 2,19,-1
 1024 1024 l 0,20,21
 1024 1024 1024 1024 1280 1024 c 1,22,23
 1280 1024 1280 1024 1280 843 c 0,24,25
 1280 512 1280 512 949 512 c 0,26,-1
 768 512 l 25,27,-1
 768 331 l 0,28,29
 768 0 768 0 437 0 c 0,30,31
 437 0 437 0 0 0 c 1,32,-1
 0 256 l 1,33,-1
 437 256 l 0,34,35
 512 256 512 256 512 331 c 0,36,37
 512 331 512 331 512 512 c 1,38,39
 512 512 512 512 331 512 c 0,40,41
 0 512 0 512 0 843 c 0,42,43
 0 843 0 843 0 1461 c 0,44,45
 0 1792 0 1792 331 1792 c 0,46,47
 331 1792 331 1792 949 1792 c 0,0,1
EndSplineSet
Validated: 1
EndChar

StartChar: uni0081
Encoding: 129 129 127
Width: 1536
VWidth: 2048
Flags: MW
LayerCount: 2
Back
Fore
SplineSet
512 1280 m 25,0,-1
 512 331 l 0,1,2
 512 256 512 256 587 256 c 24,3,-1
 1024 256 l 24,4,-1
 1024 1280 l 25,5,-1
 1280 1280 l 25,6,-1
 1280 0 l 25,7,-1
 587 0 l 0,8,9
 256 0 256 0 256 331 c 24,10,11
 256 331 256 331 256 1280 c 25,12,-1
 512 1280 l 25,0,-1
1024 1792 m 24,13,-1
 1280 1792 l 25,14,-1
 1280 1536 l 24,15,-1
 1024 1536 l 24,16,17
 1024 1536 1024 1536 1024 1792 c 24,13,-1
256 1792 m 25,18,-1
 512 1792 l 25,19,-1
 512 1536 l 24,20,-1
 256 1536 l 24,21,22
 256 1536 256 1536 256 1792 c 25,18,-1
EndSplineSet
Validated: 1
EndChar

StartChar: uni0082
Encoding: 130 130 128
Width: 1536
VWidth: 2048
Flags: MW
LayerCount: 2
Back
Fore
SplineSet
512 768 m 25,0,-1
 1024 768 l 25,1,2
 1024 896 1024 896 1024 949 c 0,3,4
 1024 1024 1024 1024 949 1024 c 24,5,-1
 587 1024 l 0,6,7
 512 1024 512 1024 512 949 c 24,8,9
 512 949 512 949 512 768 c 25,0,-1
1280 1792 m 137,-1,11
 1280 1792 1280 1792 1280 1536 c 24,12,-1
 843 1536 l 0,13,14
 768 1536 768 1536 768 1461 c 24,15,16
 768 1461 768 1461 768 1280 c 9,17,-1
 949 1280 l 0,18,19
 1280 1280 1280 1280 1280 949 c 25,20,21
 1280 949 1280 949 1280 512 c 9,22,-1
 512 512 l 24,23,24
 512 512 512 512 512 331 c 17,25,26
 512 256 512 256 587 256 c 24,27,-1
 1024 256 l 24,28,29
 1024 256 1024 256 1024 0 c 1,30,31
 805 0 805 0 587 0 c 0,32,33
 256 0 256 0 256 331 c 1,34,35
 256 331 256 331 256 949 c 1,36,37
 256 1280 256 1280 512 1280 c 1,38,-1
 512 1461 l 0,39,40
 512 1792 512 1792 841 1792 c 0,41,42
 842 1792 842 1792 843 1792 c 0,43,44
 1061 1792 1061 1792 1170.5 1792 c 128,-1,45
 1280 1792 1280 1792 1280 1792 c 137,-1,11
EndSplineSet
Validated: 1
EndChar

StartChar: uni0083
Encoding: 131 131 129
Width: 1536
VWidth: 2048
Flags: MW
LayerCount: 2
Back
Fore
SplineSet
587 512 m 0,0,1
 512 512 512 512 512 437 c 0,2,3
 512 331 512 331 512 331 c 0,4,5
 512 256 512 256 587 256 c 0,6,7
 587 256 587 256 768 256 c 1,8,9
 768 256 768 256 768 512 c 1,10,11
 768 512 768 512 587 512 c 0,0,1
1024 1461 m 1,12,13
 1024 1536 1024 1536 949 1536 c 24,14,15
 949 1536 949 1536 587 1536 c 0,16,17
 512 1536 512 1536 512 1461 c 1,18,19
 512 1461 512 1461 512 1280 c 1,20,21
 512 1280 512 1280 949 1280 c 0,22,23
 1024 1280 1024 1280 1024 1355 c 0,24,25
 1024 1355 1024 1355 1024 1461 c 1,12,13
949 1792 m 0,26,27
 1280 1792 1280 1792 1280 1461 c 24,28,29
 1280 1461 1280 1461 1280 1355 c 0,30,31
 1280 1024 1280 1024 1024 1024 c 0,32,33
 1024 640 1024 640 1024 331 c 0,34,35
 1024 256 1024 256 1099 256 c 24,36,-1
 1223 256 l 0,37,38
 1280 256 1280 256 1280 127 c 0,39,40
 1280 0 1280 0 1223 0 c 24,41,42
 1223 0 1223 0 437 0 c 0,43,44
 256 0 256 0 256 181 c 24,45,46
 256 181 256 181 256 587 c 0,47,48
 256 768 256 768 437 768 c 24,49,-1
 768 768 l 25,50,-1
 768 1024 l 24,51,-1
 256 1024 l 24,52,53
 256 1408 256 1408 256 1461 c 0,54,55
 256 1792 256 1792 587 1792 c 24,56,57
 587 1792 587 1792 949 1792 c 0,26,27
EndSplineSet
Validated: 1
EndChar

StartChar: uni0084
Encoding: 132 132 130
Width: 1536
VWidth: 2048
Flags: MW
LayerCount: 2
Back
Fore
SplineSet
587 512 m 0,0,1
 512 512 512 512 512 437 c 24,2,3
 512 363 512 363 512 331 c 0,4,5
 512 256 512 256 587 256 c 24,6,-1
 768 256 l 25,7,-1
 768 512 l 17,8,9
 768 512 768 512 587 512 c 0,0,1
256 1280 m 24,10,11
 256 1280 256 1280 768 1280 c 0,12,13
 1024 1280 1024 1280 1024 1024 c 24,14,-1
 1024 331 l 0,15,16
 1024 256 1024 256 1099 256 c 24,17,-1
 1223 256 l 0,18,19
 1280 256 1280 256 1280 127 c 0,20,21
 1280 -0 1280 -0 1223 0 c 24,22,23
 1223 0 1223 0 512 0 c 0,24,25
 256 0 256 0 256 256 c 24,26,27
 256 256 256 256 256 512 c 128,-1,28
 256 768 256 768 512 768 c 24,29,-1
 768 768 l 25,30,31
 768 898 768 898 768 949 c 0,32,33
 768 1024 768 1024 693 1024 c 24,34,-1
 256 1024 l 24,35,36
 256 1152 256 1152 256 1280 c 24,10,11
768 1792 m 25,37,-1
 1024 1792 l 25,38,-1
 1024 1536 l 25,39,-1
 768 1536 l 17,40,41
 768 1536 768 1536 768 1792 c 25,37,-1
256 1792 m 9,42,-1
 512 1792 l 25,43,-1
 512 1536 l 25,44,-1
 256 1536 l 17,45,46
 256 1536 256 1536 256 1792 c 9,42,-1
EndSplineSet
Validated: 1
EndChar

StartChar: uni0085
Encoding: 133 133 131
Width: 1536
VWidth: 2048
Flags: MW
LayerCount: 2
Back
Fore
SplineSet
587 512 m 0,0,1
 512 512 512 512 512 437 c 0,2,3
 512 346 512 346 512 331 c 0,4,5
 512 256 512 256 587 256 c 0,6,7
 587 256 587 256 768 256 c 24,8,9
 768 256 768 256 768 512 c 24,10,11
 768 512 768 512 587 512 c 0,0,1
0 1792 m 25,12,13
 2 1792 2 1792 437 1792 c 0,14,15
 768 1792 768 1792 768 1461 c 24,16,-1
 768 1280 l 0,17,-1
 843 1280 l 0,18,19
 1024 1280 1024 1280 1024 1099 c 1,20,-1
 1024 256 l 0,21,-1
 1223 256 l 0,22,23
 1280 256 1280 256 1280 127 c 17,24,25
 1280 0 1280 0 1223 0 c 0,26,27
 830 0 830 0 437 0 c 0,28,29
 256 0 256 0 256 181 c 1,30,-1
 256 587 l 1,31,32
 256 768 256 768 437 768 c 0,33,-1
 768 768 l 1,34,-1
 768 949 l 17,35,36
 768 1024 768 1024 693 1024 c 24,37,-1
 256 1024 l 24,38,39
 256 1024 256 1024 256 1280 c 24,40,-1
 512 1280 l 24,41,42
 512 1282 512 1282 512 1461 c 0,43,44
 512 1536 512 1536 437 1536 c 24,45,-1
 0 1536 l 24,46,47
 0 1536 0 1536 0 1792 c 25,12,13
EndSplineSet
Validated: 1
EndChar

StartChar: uni0086
Encoding: 134 134 132
Width: 1536
VWidth: 2048
Flags: MW
LayerCount: 2
Back
Fore
SplineSet
587 512 m 0,0,1
 512 512 512 512 512 437 c 0,2,3
 512 346 512 346 512 331 c 0,4,5
 512 256 512 256 587 256 c 0,6,7
 587 256 587 256 768 256 c 24,8,9
 768 256 768 256 768 512 c 24,10,11
 768 512 768 512 587 512 c 0,0,1
768 1355 m 0,12,13
 768 1280 768 1280 843 1280 c 16,14,15
 843 1280 843 1280 949 1280 c 0,16,17
 1024 1280 1024 1280 1024 1355 c 0,18,19
 1024 1446 1024 1446 1024 1461 c 0,20,21
 1024 1536 1024 1536 949 1536 c 0,22,-1
 843 1536 l 0,23,24
 768 1536 768 1536 768 1461 c 24,25,26
 768 1453 768 1453 768 1355 c 0,12,13
1024 1280 m 145,-1,28
 1024 1280 1024 1280 1024 256 c 0,29,-1
 1223 256 l 0,30,31
 1280 256 1280 256 1280 127 c 17,32,33
 1280 0 1280 0 1223 0 c 0,34,35
 830 0 830 0 437 0 c 0,36,37
 256 0 256 0 256 181 c 1,38,39
 256 587 256 587 256 587 c 1,40,41
 256 768 256 768 437 768 c 0,42,43
 437 768 437 768 768 768 c 1,44,-1
 768 949 l 17,45,46
 768 1024 768 1024 693 1024 c 24,47,48
 256 1024 256 1024 256 1024 c 24,49,50
 256 1152 256 1152 256 1280 c 0,51,52
 256 1280 256 1280 512 1280 c 25,53,54
 512 1280 512 1280 512 1461 c 0,55,56
 512 1792 512 1792 843 1792 c 0,57,58
 843 1792 843 1792 949 1792 c 8,59,60
 1280 1789 1280 1789 1280 1461 c 9,61,62
 1280 1280 1280 1280 1280 1280 c 0,63,27
 1024 1280 1024 1280 1024 1280 c 145,-1,28
EndSplineSet
Validated: 1
EndChar

StartChar: uni0087
Encoding: 135 135 133
Width: 1536
VWidth: 2048
Flags: MW
LayerCount: 2
Back
Fore
SplineSet
1280 1792 m 25,0,-1
 1280 1536 l 24,1,-1
 587 1536 l 0,2,3
 512 1536 512 1536 512 1461 c 24,4,5
 512 1114 512 1114 512 843 c 0,6,7
 512 768 512 768 587 768 c 24,8,-1
 1280 768 l 25,9,-1
 1280 512 l 24,10,-1
 1024 512 l 24,11,-1
 1024 331 l 0,12,13
 1024 0 1024 0 693 0 c 24,14,-1
 256 0 l 25,15,-1
 256 256 l 24,16,-1
 693 256 l 0,17,18
 768 256 768 256 768 331 c 24,19,20
 768 331 768 331 768 512 c 24,21,-1
 587 512 l 0,22,23
 256 512 256 512 256 843 c 24,24,25
 256 1318 256 1318 256 1461 c 0,26,27
 256 1792 256 1792 587 1792 c 24,28,29
 587 1792 587 1792 1280 1792 c 25,0,-1
EndSplineSet
Validated: 1
EndChar

StartChar: uni0088
Encoding: 136 136 134
Width: 1536
VWidth: 2048
Flags: MW
LayerCount: 2
Back
Fore
SplineSet
949 1280 m 0,0,1
 1024 1280 1024 1280 1024 1355 c 24,2,3
 1024 1446 1024 1446 1024 1461 c 0,4,5
 1024 1536 1024 1536 949 1536 c 24,6,-1
 587 1536 l 0,7,8
 512 1536 512 1536 512 1461 c 24,9,10
 512 1370 512 1370 512 1355 c 0,11,12
 512 1280 512 1280 587 1280 c 24,13,14
 587 1280 587 1280 949 1280 c 0,0,1
1206 1154 m 1,15,16
 1280 1105 1280 1105 1280 967 c 0,17,18
 1280 967 1280 967 1280 843 c 0,19,20
 1280 512 1280 512 949 512 c 0,21,22
 949 512 949 512 512 512 c 1,23,24
 512 384 512 384 512 331 c 0,25,26
 512 256 512 256 587 256 c 1,27,28
 777 256 777 256 967 256 c 0,29,30
 1024 256 1024 256 1024 127 c 0,31,32
 1024 0 1024 0 967 0 c 0,33,34
 777 0 777 0 587 0 c 0,35,36
 256 0 256 0 256 331 c 1,37,38
 256 649 256 649 256 967 c 0,39,40
 256 1102 256 1102 329 1154 c 1,41,42
 256 1207 256 1207 256 1355 c 0,43,44
 256 1458 256 1458 256 1461 c 0,45,46
 256 1792 256 1792 587 1792 c 24,47,48
 949 1792 949 1792 949 1792 c 0,49,50
 1280 1792 1280 1792 1280 1461 c 24,51,52
 1280 1461 1280 1461 1280 1355 c 0,53,54
 1280 1211 1280 1211 1206 1154 c 1,15,16
949 768 m 0,55,56
 1024 768 1024 768 1024 843 c 2,57,58
 1024 843 1024 843 1024 949 c 1,59,60
 1024 1024 1024 1024 949 1024 c 1,61,62
 587 1024 587 1024 587 1024 c 0,63,64
 512 1024 512 1024 512 949 c 1,65,66
 512 858 512 858 512 843 c 0,67,68
 512 768 512 768 587 768 c 1,69,70
 587 768 587 768 949 768 c 0,55,56
EndSplineSet
Validated: 1
EndChar

StartChar: uni0089
Encoding: 137 137 135
Width: 1536
VWidth: 2048
Flags: MW
LayerCount: 2
Back
Fore
SplineSet
1024 1792 m 25,0,-1
 1280 1792 l 25,1,-1
 1280 1536 l 24,2,-1
 1024 1536 l 24,3,4
 1024 1536 1024 1536 1024 1792 c 25,0,-1
256 1792 m 24,5,-1
 512 1792 l 24,6,-1
 512 1536 l 24,7,-1
 256 1536 l 24,8,9
 256 1536 256 1536 256 1792 c 24,5,-1
949 768 m 0,10,11
 1024 768 1024 768 1024 843 c 2,12,13
 1024 843 1024 843 1024 949 c 1,14,15
 1024 1024 1024 1024 949 1024 c 1,16,17
 587 1024 587 1024 587 1024 c 0,18,19
 512 1024 512 1024 512 949 c 1,20,21
 512 858 512 858 512 843 c 0,22,23
 512 768 512 768 587 768 c 1,24,25
 587 768 587 768 949 768 c 0,10,11
256 967 m 0,26,27
 256 1280 256 1280 569 1280 c 1,28,29
 569 1280 569 1280 967 1280 c 1,30,31
 1280 1280 1280 1280 1280 967 c 0,32,33
 1280 825 1280 825 1280 825 c 0,34,35
 1280 512 1280 512 967 512 c 24,36,-1
 512 512 l 1,37,38
 512 384 512 384 512 331 c 0,39,40
 512 256 512 256 587 256 c 1,41,42
 587 256 587 256 967 256 c 0,43,44
 1024 256 1024 256 1024 127 c 0,45,46
 1024 0 1024 0 967 0 c 0,47,-1
 569 0 l 0,48,49
 256 0 256 0 256 313 c 1,50,51
 256 960 256 960 256 967 c 0,26,27
EndSplineSet
Validated: 1
EndChar

StartChar: uni008A
Encoding: 138 138 136
Width: 1536
VWidth: 2048
Flags: MW
LayerCount: 2
Back
Fore
SplineSet
967 768 m 0,0,1
 1024 768 1024 768 1024 825 c 2,2,3
 1024 825 1024 825 1024 949 c 1,4,5
 1024 1024 1024 1024 949 1024 c 1,6,7
 768 1024 768 1024 587 1024 c 0,8,9
 512 1024 512 1024 512 949 c 1,10,11
 512 858 512 858 512 843 c 0,12,13
 512 768 512 768 587 768 c 1,14,15
 777 768 777 768 967 768 c 0,0,1
949 1280 m 1,16,17
 1280 1280 1280 1280 1280 949 c 0,18,19
 1280 949 1280 949 1280 825 c 0,20,21
 1280 512 1280 512 967 512 c 24,22,-1
 512 512 l 1,23,24
 512 384 512 384 512 331 c 0,25,26
 512 256 512 256 587 256 c 1,27,28
 587 256 587 256 967 256 c 0,29,30
 1024 256 1024 256 1024 127 c 0,31,32
 1024 0 1024 0 967 0 c 0,33,-1
 587 0 l 0,34,35
 256 0 256 0 256 331 c 1,36,37
 256 640 256 640 256 949 c 0,38,39
 256 1280 256 1280 512 1280 c 1,40,41
 512 1280 512 1280 512 1461 c 0,42,43
 512 1536 512 1536 437 1536 c 24,44,-1
 0 1536 l 24,45,46
 0 1536 0 1536 0 1792 c 25,47,48
 437 1792 437 1792 437 1792 c 0,49,50
 768 1792 768 1792 768 1461 c 24,51,-1
 768 1280 l 0,52,-1
 949 1280 l 1,16,17
EndSplineSet
Validated: 1
EndChar

StartChar: uni008B
Encoding: 139 139 137
Width: 1536
VWidth: 2048
Flags: MW
LayerCount: 2
Back
Fore
SplineSet
512 1024 m 24,0,-1
 768 1024 l 24,1,-1
 768 256 l 24,2,-1
 1024 256 l 24,3,-1
 1024 0 l 25,4,-1
 256 0 l 25,5,-1
 256 256 l 24,6,-1
 512 256 l 24,7,-1
 512 1024 l 24,0,-1
768 1536 m 24,8,-1
 1024 1536 l 24,9,-1
 1024 1280 l 24,10,-1
 768 1280 l 24,11,12
 768 1280 768 1280 768 1536 c 24,8,-1
256 1536 m 24,13,-1
 512 1536 l 24,14,-1
 512 1280 l 24,15,-1
 256 1280 l 24,16,17
 256 1280 256 1280 256 1536 c 24,13,-1
EndSplineSet
Validated: 1
EndChar

StartChar: uni008C
Encoding: 140 140 138
Width: 1536
VWidth: 2048
Flags: MW
LayerCount: 2
Back
Fore
SplineSet
256 1280 m 24,0,1
 256 1280 256 1280 256 1461 c 0,2,3
 256 1792 256 1792 587 1792 c 24,4,-1
 693 1792 l 0,5,6
 1024 1792 1024 1792 1024 1461 c 24,7,8
 1024 1461 1024 1461 1024 1280 c 24,9,-1
 768 1280 l 24,10,-1
 768 1461 l 0,11,12
 768 1536 768 1536 693 1536 c 24,13,-1
 587 1536 l 0,14,15
 512 1536 512 1536 512 1461 c 24,16,-1
 512 1280 l 24,17,18
 512 1280 512 1280 256 1280 c 24,0,1
512 1024 m 24,19,-1
 768 1024 l 24,20,-1
 768 256 l 24,21,-1
 1024 256 l 24,22,-1
 1024 0 l 25,23,-1
 256 0 l 25,24,-1
 256 256 l 24,25,-1
 512 256 l 24,26,-1
 512 1024 l 24,19,-1
EndSplineSet
Validated: 1
EndChar

StartChar: uni008D
Encoding: 141 141 139
Width: 1536
VWidth: 2048
Flags: MW
LayerCount: 2
Back
Fore
SplineSet
0 1792 m 25,0,1
 437 1792 437 1792 437 1792 c 0,2,3
 768 1792 768 1792 768 1461 c 24,4,5
 768 1461 768 1461 768 1280 c 24,6,-1
 512 1280 l 24,7,-1
 512 1461 l 0,8,9
 512 1536 512 1536 437 1536 c 24,10,-1
 0 1536 l 24,11,12
 0 1536 0 1536 0 1792 c 25,0,1
512 1024 m 24,13,-1
 768 1024 l 24,14,-1
 768 256 l 24,15,-1
 1024 256 l 24,16,-1
 1024 0 l 25,17,-1
 256 0 l 25,18,-1
 256 256 l 24,19,-1
 512 256 l 24,20,-1
 512 1024 l 24,13,-1
EndSplineSet
Validated: 1
EndChar

StartChar: uni008E
Encoding: 142 142 140
Width: 1536
VWidth: 2048
Flags: MW
LayerCount: 2
Back
Fore
SplineSet
1024 1792 m 25,0,-1
 1280 1792 l 25,1,-1
 1280 1536 l 24,2,-1
 1024 1536 l 24,3,4
 1024 1536 1024 1536 1024 1792 c 25,0,-1
0 1792 m 25,5,-1
 256 1792 l 25,6,-1
 256 1536 l 24,7,-1
 0 1536 l 24,8,9
 0 1536 0 1536 0 1792 c 25,5,-1
640 1227 m 1,10,11
 640 1227 640 1227 256 843 c 1,12,-1
 256 768 l 25,13,-1
 1024 768 l 25,14,-1
 1024 843 l 1,15,-1
 640 1227 l 1,10,11
0 0 m 25,16,-1
 0 949 l 25,17,-1
 587 1536 l 24,18,-1
 693 1536 l 24,19,-1
 1280 949 l 25,20,-1
 1280 0 l 25,21,-1
 1024 0 l 25,22,-1
 1024 512 l 24,23,-1
 256 512 l 24,24,-1
 256 0 l 25,25,-1
 0 0 l 25,16,-1
EndSplineSet
Validated: 1
EndChar

StartChar: uni008F
Encoding: 143 143 141
Width: 1536
VWidth: 2048
Flags: MW
LayerCount: 2
Back
Fore
SplineSet
640 1227 m 1,0,1
 640 1227 640 1227 256 843 c 1,2,-1
 256 768 l 25,3,-1
 1024 768 l 25,4,-1
 1024 843 l 1,5,-1
 640 1227 l 1,0,1
768 1461 m 24,6,7
 768 1461 768 1461 1280 949 c 1,8,-1
 1280 0 l 25,9,-1
 1024 0 l 25,10,-1
 1024 512 l 24,11,12
 1024 512 1024 512 256 512 c 24,13,-1
 256 0 l 25,14,-1
 0 0 l 25,15,-1
 0 949 l 1,16,17
 0 949 0 949 512 1461 c 24,18,-1
 512 1536 l 24,19,-1
 331 1536 l 0,20,21
 256 1536 256 1536 256 1461 c 24,22,-1
 256 1280 l 24,23,-1
 0 1280 l 24,24,25
 0 1282 0 1282 0 1461 c 0,26,27
 0 1792 0 1792 331 1792 c 24,28,-1
 949 1792 l 0,29,30
 1280 1792 1280 1792 1280 1461 c 24,31,32
 1280 1461 1280 1461 1280 1280 c 24,33,-1
 1024 1280 l 24,34,-1
 1024 1461 l 0,35,36
 1024 1536 1024 1536 949 1536 c 24,37,-1
 768 1536 l 24,38,39
 768 1536 768 1536 768 1461 c 24,6,7
EndSplineSet
Validated: 1
EndChar

StartChar: uni0090
Encoding: 144 144 142
Width: 1536
VWidth: 2048
Flags: MW
LayerCount: 2
Back
Fore
SplineSet
0 1280 m 24,0,-1
 512 1280 l 24,1,-1
 512 1461 l 0,2,3
 512 1792 512 1792 843 1792 c 24,4,-1
 1280 1792 l 25,5,-1
 1280 1536 l 24,6,-1
 843 1536 l 0,7,8
 768 1536 768 1536 768 1461 c 24,9,10
 768 1461 768 1461 768 1280 c 24,11,-1
 1280 1280 l 24,12,-1
 1280 1024 l 24,13,-1
 256 1024 l 24,14,-1
 256 768 l 25,15,-1
 1024 768 l 25,16,-1
 1024 512 l 24,17,-1
 256 512 l 24,18,-1
 256 256 l 24,19,-1
 1280 256 l 24,20,-1
 1280 0 l 25,21,-1
 0 0 l 25,22,23
 0 0 0 0 0 1280 c 24,0,-1
EndSplineSet
Validated: 1
EndChar

StartChar: uni0091
Encoding: 145 145 143
Width: 1536
VWidth: 2048
Flags: MW
LayerCount: 2
Back
Fore
SplineSet
256 587 m 0,0,1
 256 512 256 512 331 512 c 24,2,-1
 512 512 l 24,3,-1
 512 768 l 25,4,-1
 331 768 l 0,5,6
 256 768 256 768 256 693 c 24,7,8
 256 685 256 685 256 587 c 0,0,1
768 1280 m 24,9,-1
 768 1024 l 24,10,-1
 949 1024 l 0,11,12
 1024 1024 1024 1024 1024 1099 c 24,13,14
 1024 1190 1024 1190 1024 1205 c 0,15,16
 1024 1280 1024 1280 949 1280 c 24,17,18
 949 1280 949 1280 768 1280 c 24,9,-1
0 1536 m 24,19,-1
 1099 1536 l 0,20,21
 1280 1536 1280 1536 1280 1355 c 24,22,23
 1280 1062 1280 1062 1280 949 c 0,24,25
 1280 768 1280 768 1099 768 c 24,26,-1
 768 768 l 25,27,-1
 768 512 l 24,28,-1
 1280 512 l 24,29,-1
 1280 256 l 24,30,-1
 181 256 l 0,31,32
 0 256 0 256 0 437 c 24,33,34
 0 747 0 747 0 843 c 0,35,36
 0 1024 0 1024 181 1024 c 24,37,-1
 512 1024 l 24,38,-1
 512 1280 l 24,39,-1
 0 1280 l 24,40,41
 0 1280 0 1280 0 1536 c 24,19,-1
EndSplineSet
Validated: 1
EndChar

StartChar: uni0092
Encoding: 146 146 144
Width: 1536
VWidth: 2048
Flags: MW
LayerCount: 2
Back
Fore
SplineSet
256 1024 m 24,0,-1
 512 1024 l 24,1,2
 512 1024 512 1024 512 1461 c 0,3,4
 512 1536 512 1536 437 1536 c 24,5,6
 437 1536 437 1536 331 1536 c 0,7,8
 256 1536 256 1536 256 1461 c 24,9,10
 256 1461 256 1461 256 1024 c 24,0,-1
0 1461 m 0,11,12
 0 1792 0 1792 331 1792 c 24,13,14
 331 1792 331 1792 437 1792 c 0,15,16
 768 1792 768 1792 768 1461 c 24,17,-1
 768 1280 l 24,18,-1
 1280 1280 l 24,19,-1
 1280 1024 l 24,20,-1
 768 1024 l 24,21,-1
 768 768 l 25,22,-1
 1024 768 l 25,23,-1
 1024 512 l 24,24,-1
 768 512 l 24,25,-1
 768 256 l 24,26,-1
 1280 256 l 24,27,-1
 1280 0 l 25,28,-1
 512 0 l 24,29,-1
 512 768 l 25,30,-1
 256 768 l 25,31,-1
 256 0 l 25,32,-1
 0 0 l 25,33,34
 0 896 0 896 0 1461 c 0,11,12
EndSplineSet
Validated: 1
EndChar

StartChar: uni0093
Encoding: 147 147 145
Width: 1536
VWidth: 2048
Flags: MW
LayerCount: 2
Back
Fore
SplineSet
587 1024 m 0,0,1
 512 1024 512 1024 512 949 c 24,2,3
 512 730 512 730 512 587 c 0,4,5
 512 512 512 512 587 512 c 24,6,-1
 949 512 l 0,7,8
 1024 512 1024 512 1024 587 c 24,9,10
 1024 806 1024 806 1024 949 c 0,11,12
 1024 1024 1024 1024 949 1024 c 24,13,14
 949 1024 949 1024 587 1024 c 0,0,1
587 1536 m 0,15,16
 512 1536 512 1536 512 1461 c 24,17,18
 512 1370 512 1370 512 1355 c 0,19,20
 512 1280 512 1280 587 1280 c 24,21,-1
 949 1280 l 0,22,23
 1024 1280 1024 1280 1024 1355 c 24,24,25
 1024 1446 1024 1446 1024 1461 c 0,26,27
 1024 1536 1024 1536 949 1536 c 24,28,29
 949 1536 949 1536 587 1536 c 0,15,16
1204 1152 m 1,30,31
 1280 1106 1280 1106 1280 949 c 0,32,33
 1280 616 1280 616 1280 587 c 0,34,35
 1280 256 1280 256 949 256 c 24,36,37
 587 256 587 256 587 256 c 0,38,39
 256 256 256 256 256 587 c 24,40,41
 256 846 256 846 256 949 c 0,42,43
 256 1100 256 1100 331 1151 c 1,44,45
 256 1196 256 1196 256 1355 c 0,46,47
 256 1437 256 1437 256 1461 c 0,48,49
 256 1792 256 1792 587 1792 c 24,50,51
 946 1792 946 1792 949 1792 c 0,52,53
 1277 1792 1277 1792 1280 1461 c 24,54,55
 1280 1461 1280 1461 1280 1355 c 0,56,57
 1280 1201 1280 1201 1204 1152 c 1,30,31
EndSplineSet
Validated: 1
EndChar

StartChar: uni0094
Encoding: 148 148 146
Width: 1536
VWidth: 2048
Flags: MWO
LayerCount: 2
Back
Fore
SplineSet
1024 1792 m 25,0,-1
 1280 1792 l 25,1,-1
 1280 1536 l 24,2,-1
 1024 1536 l 24,3,4
 1024 1536 1024 1536 1024 1792 c 25,0,-1
256 1792 m 25,5,-1
 512 1792 l 24,6,-1
 512 1536 l 24,7,-1
 256 1536 l 24,8,9
 256 1536 256 1536 256 1792 c 25,5,-1
587 1024 m 0,10,11
 512 1024 512 1024 512 949 c 24,12,13
 512 730 512 730 512 587 c 0,14,15
 512 512 512 512 587 512 c 24,16,-1
 949 512 l 0,17,18
 1024 512 1024 512 1024 587 c 24,19,20
 1024 806 1024 806 1024 949 c 0,21,22
 1024 1024 1024 1024 949 1024 c 24,23,24
 949 1024 949 1024 587 1024 c 0,10,11
949 1280 m 0,25,26
 1280 1280 1280 1280 1280 949 c 24,27,28
 1280 602 1280 602 1280 587 c 0,29,30
 1280 256 1280 256 949 256 c 24,31,-1
 587 256 l 0,32,33
 256 256 256 256 256 587 c 24,34,35
 256 934 256 934 256 949 c 0,36,37
 256 1280 256 1280 587 1280 c 24,38,39
 587 1280 587 1280 949 1280 c 0,25,26
EndSplineSet
EndChar

